<svg width="1920" height="74" viewBox="0 0 1920 74" fill="none" xmlns="http://www.w3.org/2000/svg">
<g clip-path="url(#clip0_0_1026)">
<path d="M1250.77 69.5003C1250.39 69.8672 1249.72 72.1335 1249.82 73C1251.6 72.317 1252.62 70.6892 1252.62 70.6892C1251.72 69.7167 1250.77 69.4995 1250.77 69.4995V69.5003Z" fill="#D9CCC5"/>
<path d="M1267.42 70.5191C1267.62 71.0097 1269.5 72.4594 1270.35 72.6838C1270.37 70.7898 1269.21 69.2537 1269.21 69.2537C1267.97 69.7301 1267.42 70.5191 1267.42 70.5191Z" fill="#D9CCC5"/>
<path d="M1275.34 59.468C1275.8 59.7512 1278.18 59.8492 1279 59.542C1277.9 57.9934 1276.06 57.4066 1276.06 57.4066C1275.33 58.5099 1275.34 59.468 1275.34 59.468Z" fill="#D9CCC5"/>
<path d="M1244.36 57.8607C1243.32 58.5518 1242 60.6747 1242 60.6747C1244.21 60.5447 1245.75 59.5616 1245.75 59.5616C1244.93 57.7031 1244.36 57.8607 1244.36 57.8607H1244.36Z" fill="#D9CCC5"/>
<path d="M1272.74 51.4287C1274.89 52.3325 1276.39 54.4403 1276.39 56.8972C1276.39 60.0487 1273.92 62.6257 1270.79 62.8225C1271.09 63.5403 1271.26 64.3293 1271.26 65.1583C1271.26 68.4683 1268.56 71.1513 1265.22 71.1513C1263.13 71.1513 1261.29 70.1023 1260.21 68.5075C1259.04 70.1807 1257.09 71.2769 1254.89 71.2769C1251.32 71.2769 1248.42 68.4059 1248.42 64.8644C1248.42 63.8849 1248.64 62.957 1249.04 62.1271C1246.2 61.8341 1243.99 59.4529 1243.99 56.5579C1243.99 54.1705 1245.49 52.1331 1247.61 51.3281C1249.36 49.9353 1249.04 49.1748 1248.29 43.6689C1247.01 34.4051 1244.43 13.003 1243.99 0L1272.84 0C1271.84 25.3978 1268.26 48.0225 1268.48 49.6904C1268.64 50.9309 1270.38 50.2568 1272.74 51.4287Z" fill="#CFB897"/>
<path d="M1272.74 51.4287C1274.89 52.3326 1276.39 54.4404 1276.39 56.8972C1276.39 60.0487 1273.92 62.6258 1270.79 62.8226C1271.09 63.5403 1271.26 64.3293 1271.26 65.1583C1271.26 68.4683 1268.56 71.1514 1265.22 71.1514C1263.13 71.1514 1261.29 70.1024 1260.21 68.5075C1259.04 70.1807 1257.09 71.2769 1254.89 71.2769C1251.32 71.2769 1248.42 68.406 1248.42 64.8645C1248.42 63.8849 1248.64 62.957 1249.04 62.1271C1246.2 61.8341 1243.99 59.4529 1243.99 56.5579C1243.99 54.1705 1245.49 52.1331 1247.61 51.3281C1249.36 49.9353 1249.04 49.1749 1248.29 43.6689C1247.94 41.1212 1247.49 37.6545 1247.01 33.6981C1255.22 29.8627 1265.21 31.6829 1270.28 33.0445C1269.25 42.4686 1268.37 48.8347 1268.48 49.6905C1268.64 50.9309 1270.38 50.2568 1272.74 51.4287H1272.74Z" fill="#F4E9E3"/>
<path d="M1259.09 60.0228C1262.58 60.0228 1265.59 54.6451 1264.2 53.3566C1262.13 51.4403 1261.33 53.4902 1259.36 53.4902C1257.38 53.4902 1255.97 51.5907 1254.2 53.0013C1252.37 54.4679 1255.77 60.0228 1259.09 60.0228V60.0228Z" fill="#EBA3A3"/>
<path d="M1250.39 57.0459C1250.39 56.4075 1249.87 55.8901 1249.23 55.8901C1248.58 55.8901 1248.06 56.4075 1248.06 57.0459C1248.06 57.6844 1248.58 58.2018 1249.23 58.2018C1249.87 58.2018 1250.39 57.6844 1250.39 57.0459Z" fill="#EBA3A3"/>
<path d="M1256.51 64.1396C1256.51 63.5011 1255.98 62.9837 1255.34 62.9837C1254.7 62.9837 1254.17 63.5011 1254.17 64.1396C1254.17 64.778 1254.7 65.2954 1255.34 65.2954C1255.98 65.2954 1256.51 64.778 1256.51 64.1396Z" fill="#EBA3A3"/>
<path d="M1266.2 63.9223C1266.2 63.2838 1265.68 62.7664 1265.03 62.7664C1264.39 62.7664 1263.87 63.2838 1263.87 63.9223C1263.87 64.5608 1264.39 65.0781 1265.03 65.0781C1265.68 65.0781 1266.2 64.5608 1266.2 63.9223Z" fill="#EBA3A3"/>
<path d="M1271.4 56.2516C1271.4 55.6131 1270.88 55.0957 1270.23 55.0957C1269.59 55.0957 1269.07 55.6131 1269.07 56.2516C1269.07 56.89 1269.59 57.4074 1270.23 57.4074C1270.88 57.4074 1271.4 56.89 1271.4 56.2516Z" fill="#EBA3A3"/>
<path d="M1258.87 46.6102C1257.83 46.6102 1256.79 46.7625 1255.87 47.0662C1255.66 47.1356 1255.54 47.3627 1255.61 47.572C1255.68 47.7812 1255.91 47.8952 1256.12 47.8249C1257.78 47.2772 1259.95 47.2772 1261.65 47.8258C1261.86 47.8934 1262.09 47.7794 1262.16 47.5693C1262.23 47.3591 1262.11 47.1338 1261.9 47.0653C1260.96 46.7616 1259.91 46.6102 1258.87 46.6102V46.6102Z" fill="#E6DEBE"/>
<path d="M1561.77 69.5005C1561.39 69.8673 1560.72 72.1336 1560.82 73C1562.6 72.317 1563.62 70.6892 1563.62 70.6892C1562.72 69.7168 1561.77 69.4996 1561.77 69.4996V69.5005Z" fill="white"/>
<path d="M1578.42 70.5191C1578.62 71.0098 1580.5 72.4595 1581.35 72.6839C1581.37 70.7898 1580.21 69.2538 1580.21 69.2538C1578.97 69.7302 1578.42 70.5191 1578.42 70.5191Z" fill="white"/>
<path d="M1586.34 59.4684C1586.8 59.7515 1589.18 59.8495 1590 59.5423C1588.9 57.9937 1587.06 57.4069 1587.06 57.4069C1586.33 58.5102 1586.34 59.4684 1586.34 59.4684Z" fill="white"/>
<path d="M1555.36 57.8611C1554.32 58.5521 1553 60.675 1553 60.675C1555.21 60.545 1556.75 59.5619 1556.75 59.5619C1555.93 57.7035 1555.36 57.8611 1555.36 57.8611H1555.36Z" fill="white"/>
<path d="M1583.74 51.4292C1585.89 52.3331 1587.39 54.4408 1587.39 56.8976C1587.39 60.049 1584.92 62.626 1581.79 62.8228C1582.09 63.5405 1582.26 64.3295 1582.26 65.1585C1582.26 68.4684 1579.56 71.1514 1576.22 71.1514C1574.13 71.1514 1572.29 70.1024 1571.21 68.5076C1570.04 70.1808 1568.09 71.277 1565.89 71.277C1562.32 71.277 1559.42 68.4061 1559.42 64.8647C1559.42 63.8851 1559.64 62.9573 1560.04 62.1273C1556.96 61.8344 1554.97 59.7685 1554.98 56.5583C1555 54.1941 1556.75 52.0018 1558.61 51.3286C1561.74 49.8691 1562.29 50.358 1561.39 43.7364C1560.14 34.4711 1557.2 13.0054 1556.75 0.00268555L1583.84 0.00268555C1582.84 25.3998 1579.26 48.0241 1579.48 49.6919C1579.64 50.9323 1581.38 50.2582 1583.74 51.4301V51.4292Z" fill="#C26E40"/>
<path d="M1561.39 43.7355C1561.41 43.8575 1561.43 43.9768 1561.44 44.0944C1561.45 44.1238 1561.45 44.1523 1561.45 44.1817C1561.46 44.2734 1561.48 44.3642 1561.49 44.4533C1561.49 44.48 1561.5 44.5067 1561.5 44.5334C1561.53 44.7649 1561.56 44.9875 1561.58 45.2004V45.2004C1562.2 39.5111 1563.31 36.6866 1562.35 32.8593C1561.62 29.9279 1561.9 28.2823 1562.21 26.6794V26.6794C1565.16 17.6928 1566.75 23.5699 1567.64 16.2235C1568.53 8.87712 1571.1 5.80588 1573.18 9.81211C1575.26 13.8192 1572.77 15.4221 1575.77 17.2921C1578.57 19.0427 1579.21 22.1478 1578.79 25.7952C1578.41 26.9973 1578.15 28.0908 1578.5 29.3126C1579.98 34.5512 1577.02 37.7996 1578.36 40.398C1579.72 43.0454 1579.54 45.1131 1579.72 46.5939V46.5939C1580.53 39.3241 1583.03 20.5726 1583.85 0L1556.75 0C1557.2 13.0027 1560.14 34.4684 1561.39 43.7337L1561.39 43.7355Z" fill="#A6562A"/>
<path d="M1570.09 60.0231C1573.58 60.0231 1576.59 54.6456 1575.2 53.3571C1573.13 51.4408 1572.33 53.4906 1570.36 53.4906C1568.39 53.4906 1566.97 51.5913 1565.2 53.0018C1563.37 54.4684 1566.77 60.0231 1570.09 60.0231H1570.09Z" fill="#EBA3A3"/>
<path d="M1561.39 57.0463C1561.39 56.4079 1560.87 55.8905 1560.23 55.8905C1559.58 55.8905 1559.06 56.4079 1559.06 57.0463C1559.06 57.6848 1559.58 58.2022 1560.23 58.2022C1560.87 58.2022 1561.39 57.6848 1561.39 57.0463Z" fill="#EBA3A3"/>
<path d="M1567.51 64.1398C1567.51 63.5013 1566.98 62.9839 1566.34 62.9839C1565.7 62.9839 1565.17 63.5013 1565.17 64.1398C1565.17 64.7782 1565.7 65.2956 1566.34 65.2956C1566.98 65.2956 1567.51 64.7782 1567.51 64.1398Z" fill="#EBA3A3"/>
<path d="M1577.2 63.9226C1577.2 63.2841 1576.68 62.7667 1576.03 62.7667C1575.39 62.7667 1574.87 63.2841 1574.87 63.9226C1574.87 64.561 1575.39 65.0784 1576.03 65.0784C1576.68 65.0784 1577.2 64.561 1577.2 63.9226Z" fill="#EBA3A3"/>
<path d="M1582.4 56.252C1582.4 55.6136 1581.88 55.0962 1581.23 55.0962C1580.59 55.0962 1580.07 55.6136 1580.07 56.252C1580.07 56.8905 1580.59 57.4079 1581.23 57.4079C1581.88 57.4079 1582.4 56.8905 1582.4 56.252Z" fill="#EBA3A3"/>
<path d="M1569.87 46.6108C1568.83 46.6108 1567.79 46.7631 1566.87 47.0668C1566.66 47.1362 1566.54 47.3633 1566.61 47.5725C1566.68 47.7818 1566.91 47.8958 1567.12 47.8254C1568.78 47.2778 1570.95 47.2778 1572.65 47.8263C1572.86 47.894 1573.09 47.78 1573.16 47.5699C1573.23 47.3597 1573.11 47.1344 1572.9 47.0659C1571.96 46.7622 1570.91 46.6108 1569.87 46.6108H1569.87Z" fill="#CCC5A9"/>
<path d="M1354.93 41.8573C1354.8 50.0456 1346.37 58.6467 1349.83 64.4516C1351.03 66.3553 1353.3 66.3027 1354.8 66.2893C1357.29 66.267 1355.98 69.7936 1358.8 70.9617C1360.34 71.6037 1362.21 71.7179 1364.74 69.9381C1365.88 69.3264 1367.02 72.2297 1369.98 71.9854C1373.5 71.6947 1373.52 67.4779 1374.24 67.3335C1375.34 67.1123 1378.04 68.4641 1379.86 65.7891C1383.29 60.7538 1378.03 53.6069 1376.55 48.8008C1373.12 38.9861 1378.23 0 1378.23 0L1351.68 0C1351.68 0 1355.34 34.9387 1354.93 41.8573V41.8573Z" fill="#FCD228"/>
<path d="M1365.57 57.8165C1363.12 57.8165 1363.31 56.216 1361.3 54.7732C1359.4 53.4063 1359.74 51.6773 1361.05 50.9952C1362.93 50.0241 1364.52 51.5462 1365.62 51.5462C1366.72 51.5462 1368.68 49.6568 1370.5 51.2047C1372.31 52.7527 1370.51 54.3622 1369.46 55.1932C1368.24 56.1642 1367.92 57.8174 1365.57 57.8174L1365.57 57.8165Z" fill="#593524"/>
<path d="M1352.48 62.8376C1350.84 61.7301 1354.18 57.6257 1355.51 58.5201C1356.84 59.4144 1355.21 64.6923 1352.48 62.8376Z" fill="#593524"/>
<path d="M1360.47 67.3638C1358.12 67.0133 1359.61 61.9281 1361.43 62.1251C1363.25 62.3222 1363.12 67.7597 1360.47 67.3638Z" fill="#593524"/>
<path d="M1369.9 67.3237C1367.28 67.642 1366.98 62.4845 1368.67 62.1983C1370.97 61.8104 1372.37 67.0232 1369.9 67.3237Z" fill="#593524"/>
<path d="M1378.15 64.3535C1376.21 65.6357 1374.03 61.1194 1375.21 59.9727C1376.26 58.9606 1379.78 63.2763 1378.15 64.3535Z" fill="#593524"/>
<path d="M1365.77 43.5791C1363.97 43.5791 1362.12 44.0089 1360.3 44.8685C1359.99 45.0138 1359.9 45.3179 1360.1 45.5479C1360.29 45.778 1360.7 45.8458 1361 45.7004C1364.21 44.1828 1367.39 44.1783 1370.21 45.6853C1370.5 45.8431 1370.92 45.7923 1371.13 45.5711C1371.34 45.35 1371.27 45.0423 1370.97 44.8845C1369.35 44.0151 1367.58 43.58 1365.77 43.58L1365.77 43.5791Z" fill="#DED6B8"/>
<path d="M1357.49 30.4946C1361.86 31.561 1362.89 32.8085 1361.67 33.2534C1359.15 32.8299 1356.87 33.8098 1354.84 36.5312C1354.75 34.7042 1354.61 32.5891 1354.45 30.3153C1355.27 30.1834 1356.27 30.1985 1357.49 30.4937V30.4946Z" fill="#FFF2BF"/>
<path d="M1360.01 12.3078C1362.58 11.9521 1364.62 15.9566 1362.37 15.8683C1360.12 15.7791 1360.72 18.8947 1357.97 18.8947C1355.62 18.8947 1355.02 19.0908 1353.69 20.9652C1353.42 17.9477 1353.15 14.9454 1352.89 12.1955C1355.03 11.2494 1357.97 12.5914 1360.01 12.3087V12.3078Z" fill="#FFF2BF"/>
<path d="M1375.55 29.5664C1373.98 28.4651 1373.26 27.0777 1372.01 26.2823C1370.32 25.2141 1369.79 25.5699 1368.9 26.2823C1368.01 26.9939 1366.24 25.8374 1366.24 25.1249C1366.24 24.4125 1367.75 21.9211 1368.99 21.7428C1370.23 21.5644 1372.36 21.2086 1373.43 20.8529C1373.96 20.6754 1375 20.918 1376.07 21.1516C1375.86 23.9309 1375.68 26.7816 1375.55 29.5664V29.5664Z" fill="#FFF2BF"/>
<path d="M1376.96 11.1915C1372.43 7.92705 1370.02 7.47586 1368.18 8.03584C1366.14 8.65912 1363.57 7.32339 1363.35 6.07771C1363.12 4.83203 1369.78 2.07228 1373.6 2.78473C1375.29 3.10128 1376.64 3.71565 1377.72 4.20875C1377.5 6.07949 1377.23 8.47544 1376.96 11.1924V11.1915Z" fill="#FFF2BF"/>
<path d="M1663.32 0.0656247C1662.62 1.12756 1663.33 1.52557 1662.87 2.15582C1663.63 2.95183 1663.13 4.08025 1662.97 4.24601C1663.81 4.67327 1663.45 5.70596 1663.35 5.9382C1664 6.51261 1663.84 7.1987 1663.73 7.56391C1664.15 7.98496 1664.28 8.69233 1664.01 9.09033C1664.33 9.71615 1664.15 10.2852 1663.94 10.6832C1664.93 11.8117 1664.18 12.707 1664.18 12.707C1664.68 13.2752 1664.45 14.3663 1664.45 14.3663C1664.88 15.3237 1664.25 16.0585 1664.25 16.0585C1664.83 16.921 1664.89 17.5185 1664.6 17.585C1665.17 18.3242 1665.09 18.8455 1664.77 19.3099C1665.3 19.6698 1664.97 20.9357 1664.69 21.2016C1665.27 21.5668 1665.21 22.595 1665.1 22.9603C1665.61 23.0666 1665.48 24.2872 1665.17 24.586C1665.41 24.984 1665.92 25.7472 1665.44 26.0787C1666.13 27.0077 1666.13 27.8374 1665.45 27.6379C1666.12 28.9942 1665.75 29.4294 1665.41 29.1971C1666.28 30.962 1666.03 31.5533 1665.45 31.7855C1666.95 33.046 1665.21 33.8092 1665.03 33.8092C1666.59 35.0733 1666.66 36.2974 1666.05 36.1653C1666.16 37.1271 1667.3 39.118 1665.86 38.986C1666.58 39.6827 1666.99 40.6781 1665.75 41.0762C1666.37 42.4031 1666.54 43.0006 1666.1 43.8631C1666.75 44.925 1667.5 46.5507 1666.34 47.1145C1667.06 48.2456 1665.82 49.2047 1665.62 49.1719C1665.72 50.7311 1664.9 50.8313 1664.42 50.8313C1665.41 51.7275 1664.83 53.4196 1663.94 53.2867C1664.46 54.158 1663.36 54.6473 1662.67 54.7138C1663.08 55.3778 1663.25 56.7375 1661.81 56.7375C1662.55 57.6745 1661.82 59.3259 1660.65 59.2922C1661.47 60.1636 1660.58 61.6147 1660 61.6811C1660.62 62.5773 1660.27 63.3733 1660 63.805C1661.47 64.1037 1661.92 64.6347 1662.19 65.9945C1662.91 65.4972 1663.53 65.8287 1663.63 66.2932C1664.35 65.663 1665.17 66.0938 1665.41 66.459C1665.57 65.9617 1666.86 66.0778 1666.92 66.7825C1667.99 66.5919 1668.08 67.9854 1667.84 68.2504C1668.67 68.2832 1669.32 69.3789 1668.97 70.3743C1670.19 70.119 1670.41 70.8716 1670.41 71.0383C1671.1 70.806 1671.27 71.5222 1671.46 72C1672.44 71.4691 1672.71 71.4026 1673.22 71.8343C1673.6 70.6624 1674.52 71.0383 1674.8 71.337C1674.83 70.9673 1675.35 70.2254 1676.12 70.4355C1676.29 69.8939 1677 69.6288 1677.33 70.158C1678.33 69.3957 1679.14 70.0127 1679.14 70.2307C1679.97 69.979 1680.25 70.4851 1680.25 70.8113C1681.23 70.5764 1681.62 71.0711 1681.65 71.1375C1682.38 70.8947 1682.68 71.2705 1682.68 71.2705C1683.36 70.7395 1683.93 71.204 1683.93 71.204C1684.3 70.4302 1684.94 70.4745 1685.03 70.5401C1685.17 69.7006 1685.87 69.6333 1685.87 69.6333C1685.87 68.8514 1686.49 68.4605 1686.49 68.4605C1686.33 67.6069 1686.76 67.4429 1686.76 67.4429C1687.01 66.0273 1688.16 66.4696 1688.16 66.5583C1688.8 65.9608 1689.66 66.5583 1689.66 66.5583C1690.33 65.8819 1691.05 66.6691 1691.05 66.5804C1691.37 65.8066 1691.73 65.7622 1692.32 65.9608C1692.1 65.3527 1692.71 65.0762 1693.05 65.1648C1692.96 64.5009 1693.1 64.3023 1693.46 64.258C1693.25 63.8387 1693.47 63.3955 1693.81 63.2962C1693.34 63.0746 1693.73 62.3123 1694 62.3229C1693.81 61.7813 1693.52 61.4267 1693.92 61.1723C1693.42 61.0837 1693.4 60.4534 1693.6 60.2434C1693.12 59.895 1693.69 59.856 1693.2 59.2701C1692.71 58.6841 1692.54 58.6398 1692.66 58.3854C1692.41 58.0096 1692.03 57.717 1692.19 57.46C1691.81 56.9698 1691.59 56.6711 1691.73 56.2624C1691.34 55.7314 1690.82 55.8972 1691.08 55.3441C1690.62 54.7803 1690.2 54.9124 1690.54 54.338C1689.94 54.2387 1689.72 53.807 1689.8 53.6519C1689.19 53.4861 1688.74 53.1378 1689.05 52.6901C1688.34 52.4579 1688.17 51.9934 1688.52 51.5954C1687.66 51.2807 1687.64 50.8986 1687.86 50.5166C1686.85 50.334 1686.73 49.7702 1686.97 49.4883C1686.39 48.9538 1685.83 48.9911 1686.49 48.5266C1686.43 48.0621 1685.93 47.9956 1686.46 47.4646C1686 46.3867 1686.19 45.8221 1686.6 45.6235C1686.15 45.2255 1686.76 45.3629 1686.44 44.6635C1686.12 43.9641 1686.29 43.3507 1686.7 43.1681C1686.36 42.5379 1686.6 41.9732 1686.85 41.9404C1686.08 41.4094 1686.77 40.7296 1687.02 40.6799C1686.41 40.149 1686.72 38.8884 1686.99 38.8388C1686.25 38.3078 1686.63 37.7228 1686.89 37.6085C1686.24 36.6981 1686.89 35.8028 1687.33 35.6034C1686.78 35.2222 1686.51 34.9731 1687.01 34.6079C1686.85 33.9608 1687.14 33.2313 1687.49 33.1311C1686.82 32.5833 1687.08 32.0523 1687.52 31.9867C1687.01 31.29 1687.28 30.908 1687.57 30.8087C1687.11 30.5764 1686.98 29.8602 1687.43 29.7618C1687.18 29.1989 1687.38 28.6183 1687.85 28.5855C1687.37 28.1875 1687.66 27.3747 1687.97 27.3578C1687.63 27.0431 1687.52 25.9971 1688 25.8979C1687.64 25.1178 1687.54 24.1064 1688.22 23.9238C1687.91 23.1783 1687.43 22.4807 1688.19 22.0986C1687.97 21.2858 1687.57 20.6387 1688.22 20.34C1688 19.676 1688.22 18.4155 1688.94 18.2826C1688.03 17.4866 1687.91 16.0931 1688.74 15.844C1688.12 15.3467 1688.26 14.3344 1688.91 14.2183C1688.12 13.5384 1688.38 11.6299 1689.42 11.5475C1688.56 10.6682 1688.8 9.44047 1689.37 9.30751C1689.13 8.59394 1688.99 7.83072 1689.63 7.58252C1688.58 7.2838 1689.13 5.60845 1689.78 5.47549C1689.15 5.11028 1690.07 4.64579 1689.78 3.66718C1689.49 2.68856 1689.21 2.24003 1689.92 2.09111C1689.32 1.79238 1689.9 0.250001 1690.16 0.000915527C1688.67 0.000915527 1663.32 0.0673975 1663.32 0.0673975L1663.32 0.0656247Z" fill="#CFB897"/>
<path d="M1686.83 4.4605C1687.74 4.56687 1686.64 2.60875 1688.29 2.70271C1689.53 2.77274 1688.39 0.0141828 1689.65 0C1687.65 0.00354571 1680.75 0.0203878 1674.52 0.0363435C1673.44 0.903269 1675.61 1.52731 1675.2 3.01296C1674.56 4.9631 1676.49 3.17075 1676.18 5.28842C1675.95 6.9026 1678.32 5.84953 1678.32 8.15424C1678.32 10.4589 1679.94 7.38659 1681.03 9.2472C1682.31 9.9856 1682.26 6.49485 1683.21 7.29263C1684.15 8.09042 1683.62 4.78582 1684.94 5.5836C1686.91 6.78382 1685.81 4.3426 1686.83 4.4605H1686.83Z" fill="#F4E9E3"/>
<path d="M1676.65 59.6237C1681.36 59.6237 1682.63 54.9123 1680.92 53.6509C1679.21 52.3905 1678.66 54.5134 1676.74 54.5134C1674.82 54.5134 1674.21 52.3896 1672.49 53.8495C1670.78 55.3095 1672.36 59.6228 1676.65 59.6228L1676.65 59.6237Z" fill="#593524"/>
<path d="M1665.8 61.3966C1664.52 60.2939 1667.4 58.0645 1668.35 58.7275C1669.31 59.3915 1667.19 62.5986 1665.8 61.3966Z" fill="#593524"/>
<path d="M1672.27 66.2728C1670.71 65.6567 1671.94 62.4275 1673.42 62.7714C1675.1 63.1632 1673.81 66.8827 1672.27 66.2728Z" fill="#593524"/>
<path d="M1681.96 66.0734C1680.49 66.4643 1679.46 63.1641 1680.76 62.7776C1682.06 62.3911 1683.67 65.616 1681.96 66.0734Z" fill="#593524"/>
<path d="M1687.8 60.3976C1686.74 61.2131 1684.61 58.6761 1685.66 57.8801C1686.71 57.0841 1689.08 59.4207 1687.8 60.3976Z" fill="#593524"/>
<path d="M1665.53 26.2037C1665.5 26.162 1665.48 26.1203 1665.44 26.0787C1665.92 25.7472 1665.41 24.9839 1665.17 24.5859C1665.48 24.2872 1665.61 23.0666 1665.11 22.9602C1665.21 22.595 1665.28 21.5668 1664.69 21.2016C1664.97 20.9365 1665.3 19.6707 1664.77 19.3099C1665.09 18.8454 1665.17 18.3242 1664.6 17.5849C1664.89 17.5185 1664.83 16.921 1664.25 16.0585C1664.25 16.0585 1664.89 15.3237 1664.46 14.3663C1664.46 14.3663 1664.69 13.2751 1664.18 12.7069C1664.18 12.7069 1664.41 12.4419 1664.45 12.0191C1665.1 11.91 1665.81 11.8161 1666.49 12.0988C1667.77 12.6298 1667.49 12.0102 1667.67 13.4258C1667.86 14.8415 1668.77 13.5145 1668.95 15.8147C1669.14 18.115 1670.78 16.6994 1669.77 17.6727C1668.77 18.646 1670.87 19.2656 1670.23 19.442C1669.59 19.6193 1672.7 22.1846 1671.51 22.5392C1670.32 22.8929 1671.97 24.0434 1670.96 23.7775C1669.96 23.5125 1669.77 25.8128 1669.04 25.8128C1668.31 25.8128 1667.95 27.1397 1667.03 26.3437C1666.28 25.6851 1666.4 26.5379 1665.53 26.2037H1665.53Z" fill="#F4E9E3"/>
<path d="M1687.49 33.1293C1687.37 33.163 1687.27 33.2676 1687.18 33.4147C1685.62 34.7373 1683.99 34.5653 1684.85 31.9149C1685.76 29.0872 1681.37 29.7946 1683.38 28.4676C1685.39 27.1406 1683.02 27.2292 1683.93 26.1673C1684.85 25.1054 1681.95 24.398 1682.85 23.9557C1683.75 23.5133 1683.57 23.071 1683.57 23.071C1683.57 23.071 1683.29 23.071 1683.38 22.0977C1683.47 21.1244 1683.2 20.5048 1683.57 19.7088C1683.93 18.9128 1684.57 19.0892 1684.57 18.6469C1684.57 18.2045 1685.48 18.8241 1685.58 18.0273C1685.67 17.2312 1687.39 17.6736 1687.49 17.2312C1687.59 16.7889 1687.3 14.8423 1687.49 14.931C1687.64 15.001 1687.5 14.064 1688.45 14.5711C1688.25 14.9425 1688.32 15.5089 1688.74 15.8431C1687.92 16.0922 1688.04 17.4856 1688.94 18.2817C1688.23 18.4146 1688 19.6751 1688.23 20.3391C1687.57 20.6378 1687.97 21.2849 1688.19 22.0977C1687.44 22.4789 1687.91 23.1765 1688.23 23.9229C1687.54 24.1055 1687.64 25.1178 1688 25.8969C1687.52 25.9962 1687.63 27.0422 1687.97 27.3569C1687.66 27.3737 1687.37 28.1866 1687.85 28.5846C1687.39 28.6174 1687.18 29.198 1687.43 29.7609C1686.99 29.8593 1687.11 30.5755 1687.57 30.8078C1687.28 30.907 1687.01 31.2891 1687.52 31.9858C1687.08 32.0523 1686.82 32.5833 1687.49 33.1302L1687.49 33.1293Z" fill="#F4E9E3"/>
<path d="M1665.77 49.1249C1666.14 48.921 1666.96 48.0807 1666.34 47.1145C1667.5 46.5507 1666.75 44.925 1666.1 43.863C1666.54 43.0006 1666.37 42.4031 1665.76 41.0761C1666.99 40.6781 1666.58 39.6827 1665.86 38.9859C1667.19 39.1091 1666.32 37.4099 1666.1 36.394C1667.11 36.3559 1667.62 37.8814 1668.13 37.6696C1668.77 37.4045 1667.13 39.5275 1668.13 39.4389C1669.14 39.3502 1669.04 40.9432 1670.23 40.7659C1671.42 40.5886 1670.23 42.6238 1671.78 42.3588C1673.34 42.0937 1670.78 43.067 1671.33 44.2167C1671.88 45.3673 1667.86 44.394 1668.31 45.8974C1668.77 47.4017 1668.04 46.8707 1667.58 48.2863C1667.37 48.96 1666.59 49.1727 1665.77 49.124V49.1249Z" fill="#F4E9E3"/>
<path d="M1456.77 49.7035C1455.01 56.2827 1449.05 59.395 1451.65 63.529C1453.94 67.1731 1457.64 64.5516 1458.28 64.8179C1458.92 65.0843 1457.68 69.416 1461.12 70.5526C1464.85 71.7863 1466.14 68.152 1467.05 68.0184C1467.95 67.8848 1469.49 72.0865 1473.41 70.7299C1476.05 69.8186 1476.22 67.1847 1475.81 65.0174C1475.75 64.3173 1476.45 65.502 1478.59 66.04C1481.42 66.7509 1484.31 63.9895 1482.36 59.7219C1480.42 55.4543 1476.07 50.6798 1475.85 48.7682C1475.62 46.8566 1478.27 11.8694 1479.07 0L1453.31 0C1453.31 0 1457.78 45.9196 1456.77 49.7017L1456.77 49.7035Z" fill="#262521"/>
<path d="M1466.75 56.9498C1471.37 56.9498 1472.62 52.2154 1470.94 50.9479C1469.26 49.6812 1468.72 51.8146 1466.84 51.8146C1464.96 51.8146 1464.36 49.6803 1462.68 51.1474C1461 52.6145 1462.54 56.9489 1466.75 56.9489V56.9498Z" fill="#F4E9E3"/>
<path d="M1455.12 61.6174C1453.77 60.6305 1456.31 58.2388 1457.54 59.2168C1458.45 59.9321 1456.53 62.6427 1455.12 61.6174Z" fill="#F4E9E3"/>
<path d="M1463.17 65.9724C1462.05 65.8004 1462.43 62.4743 1464.18 62.4218C1465.93 62.3692 1465.23 66.2895 1463.17 65.9724Z" fill="#F4E9E3"/>
<path d="M1472.09 65.9171C1470.71 66.4587 1469.65 63.2546 1470.87 62.7344C1472.1 62.2142 1473.71 65.2829 1472.09 65.9171Z" fill="#F4E9E3"/>
<path d="M1479.01 61.4402C1477.99 62.2998 1475.81 59.8324 1476.8 58.9933C1477.8 58.1542 1480.22 60.4105 1479.01 61.4402Z" fill="#F4E9E3"/>
<path d="M1479.07 0.00177002C1478.59 7.06371 1477.46 22.3082 1476.67 33.9023C1469.53 33.7357 1469.35 28.6575 1471.75 22.9415C1474.44 16.5396 1460.4 17.6067 1464.67 10.2713C1466.93 6.37694 1465.35 2.93415 1464.66 0.00177002L1479.07 0.00177002L1479.07 0.00177002Z" fill="#F4E9E3"/>
<path d="M1769.77 49.7035C1768.01 56.2827 1762.05 59.395 1764.65 63.529C1766.94 67.1731 1770.64 64.5516 1771.28 64.8179C1771.92 65.0843 1770.68 69.416 1774.12 70.5526C1777.85 71.7863 1779.14 68.152 1780.05 68.0184C1780.95 67.8848 1782.49 72.0865 1786.41 70.7299C1789.05 69.8186 1789.22 67.1847 1788.81 65.0174C1788.75 64.3173 1789.45 65.502 1791.59 66.04C1794.42 66.7509 1797.31 63.9895 1795.36 59.7219C1793.42 55.4543 1789.07 50.6798 1788.85 48.7682C1788.62 46.8566 1791.27 11.8694 1792.07 0L1766.31 0C1766.31 0 1770.78 45.9196 1769.77 49.7017L1769.77 49.7035Z" fill="#D18925"/>
<path d="M1779.75 58.8107C1784.37 58.8107 1785.62 54.0763 1783.94 52.8087C1782.26 51.5421 1781.72 53.6754 1779.84 53.6754C1777.96 53.6754 1777.36 51.5412 1775.68 53.0083C1774 54.4753 1775.54 58.8098 1779.75 58.8098L1779.75 58.8107Z" fill="#593524"/>
<path d="M1769.02 60.773C1767.67 59.786 1770.2 57.3943 1771.44 58.3724C1772.34 59.0877 1770.42 61.7983 1769.02 60.773Z" fill="#593524"/>
<path d="M1776.17 65.9724C1775.05 65.8004 1775.43 62.4743 1777.18 62.4218C1778.93 62.3692 1778.23 66.2895 1776.17 65.9724Z" fill="#593524"/>
<path d="M1785.09 65.9171C1783.71 66.4587 1782.65 63.2546 1783.87 62.7344C1785.1 62.2142 1786.71 65.2829 1785.09 65.9171Z" fill="#593524"/>
<path d="M1791.56 61.0402C1790.55 61.8998 1788.36 59.4324 1789.36 58.5933C1790.36 57.7542 1792.77 60.0105 1791.56 61.0402Z" fill="#593524"/>
<path d="M1790.95 15.7825C1789.45 15.6391 1787.93 15.1456 1786.54 16.9512C1784.13 20.1018 1781.1 9.99968 1781.3 15.8012C1781.51 21.6027 1776.47 14.8009 1775.53 21.4139C1774.6 28.026 1771.83 16.4016 1769.26 22.8035C1768.97 23.5187 1768.72 24.0977 1768.51 24.5538C1767.49 12.2088 1766.31 0.00268555 1766.31 0.00268555L1792.07 0.00268555C1791.82 3.6352 1791.4 9.43227 1790.95 15.7834L1790.95 15.7825Z" fill="#FCD228"/>
<path d="M1871.61 49.6668C1869.85 54.1539 1864.66 61.1281 1866.33 63.7941C1868.6 67.4196 1872.46 64.5044 1873.09 64.7714C1873.72 65.0376 1872.35 69.6663 1875.73 70.8021C1879.39 72.0349 1880.48 67.0902 1881.65 67.457C1882.49 67.7187 1884.44 71.6548 1887.47 70.6178C1890.01 69.9556 1890.07 67.2781 1889.98 65.0322C1889.75 63.9525 1890.85 64.8649 1893.02 65.0322C1895.89 65.2548 1898.06 62.6592 1896.45 59.0595C1894.54 54.7948 1890.56 50.6441 1890.34 48.7339C1890.12 46.8237 1892.72 11.861 1893.51 0L1868.21 0C1868.21 0 1873.03 46.0315 1871.6 49.6668H1871.61Z" fill="#C26E40"/>
<path d="M1870.67 26.2233C1872.17 26.664 1873.51 27.0663 1873.79 28.3071C1874.42 31.1057 1878.5 29.7064 1879.49 33.1014C1880.48 36.4964 1886.22 35.5039 1889.07 39.1018C1889.77 39.9786 1890.29 40.6168 1890.69 41.0245C1890.78 39.5896 1890.88 38.006 1890.99 36.3157C1887.84 29.8266 1882.37 26.3115 1881.5 22.2498C1880.54 17.7911 1874.94 19.9114 1873.79 14.146C1872.84 9.34997 1871.77 4.54503 1868.37 1.56843C1868.77 5.4592 1869.82 15.9841 1870.67 26.2233H1870.67Z" fill="#593524"/>
<path d="M1881.57 59.3701C1886.11 59.3701 1887.34 54.6391 1885.69 53.3724C1884.04 52.1057 1883.51 54.2385 1881.66 54.2385C1879.81 54.2385 1879.22 52.1057 1877.57 53.5718C1875.92 55.0378 1877.44 59.3692 1881.57 59.3692V59.3701Z" fill="#F4E9E3"/>
<path d="M1871.19 60.773C1869.96 59.6612 1872.64 57.7073 1873.56 58.3741C1874.49 59.0408 1872.35 61.8251 1871.19 60.773Z" fill="#F4E9E3"/>
<path d="M1877.62 64.7127C1876.31 64.2374 1877.42 60.7854 1878.79 61.2875C1880.02 61.7379 1879.13 65.2575 1877.62 64.7127Z" fill="#F4E9E3"/>
<path d="M1885.66 64.9931C1884.27 65.4488 1883.37 61.7058 1884.61 61.2617C1885.84 60.8175 1887.29 64.4599 1885.66 64.9931Z" fill="#F4E9E3"/>
<path d="M1891.97 60.8246C1890.87 61.7014 1888.68 58.9749 1889.76 58.1195C1890.84 57.2641 1893.29 59.7751 1891.97 60.8246Z" fill="#F4E9E3"/>
<path d="M1891.95 22.2489C1889.89 12.9132 1886.44 15.8453 1886.32 11.7142C1886.19 7.58307 1880.93 9.44878 1880.46 6.11702C1880.21 4.3047 1878.59 2.13634 1878.88 1.90735e-05L1893.51 1.90735e-05C1893.19 4.84056 1892.56 13.53 1891.95 22.2489V22.2489Z" fill="#593524"/>
</g>
<g clip-path="url(#clip1_0_1026)">
<path d="M8.77434 69.5003C8.38824 69.8672 7.71571 72.1335 7.81628 73C9.59772 72.317 10.6168 70.6892 10.6168 70.6892C9.71535 69.7167 8.77434 69.4995 8.77434 69.4995V69.5003Z" fill="#D9CCC5"/>
<path d="M25.4215 70.5191C25.6244 71.0097 27.5046 72.4594 28.355 72.6838C28.3657 70.7898 27.2119 69.2537 27.2119 69.2537C25.9692 69.7301 25.4215 70.5191 25.4215 70.5191Z" fill="#D9CCC5"/>
<path d="M33.3437 59.468C33.7963 59.7512 36.1766 59.8492 37 59.542C35.9001 57.9934 34.0611 57.4066 34.0611 57.4066C33.3276 58.5099 33.3437 59.468 33.3437 59.468Z" fill="#D9CCC5"/>
<path d="M2.3579 57.8607C1.31992 58.5518 0 60.6747 0 60.6747C2.20526 60.5447 3.75145 59.5616 3.75145 59.5616C2.93436 57.7031 2.357 57.8607 2.357 57.8607H2.3579Z" fill="#D9CCC5"/>
<path d="M30.7425 51.4287C32.8867 52.3325 34.3907 54.4403 34.3907 56.8972C34.3907 60.0487 31.9152 62.6257 28.7869 62.8225C29.0931 63.5403 29.2628 64.3293 29.2628 65.1583C29.2628 68.4683 26.5574 71.1513 23.2199 71.1513C21.1331 71.1513 19.2933 70.1023 18.2078 68.5075C17.0405 70.1807 15.0938 71.2769 12.8877 71.2769C9.31669 71.2769 6.42184 68.4059 6.42184 64.8644C6.42184 63.8849 6.64452 62.957 7.0405 62.1271C4.20042 61.8341 1.98529 59.4529 1.98529 56.5579C1.98529 54.1705 3.49287 52.1331 5.61463 51.3281C7.36285 49.9353 7.04499 49.1748 6.28805 43.6689C5.01303 34.4051 2.43335 13.003 1.98529 0L30.8449 0C29.8365 25.3978 26.2593 48.0225 26.4757 49.6904C26.6409 50.9309 28.3774 50.2568 30.7425 51.4287Z" fill="#CFB897"/>
<path d="M30.7425 51.4287C32.8867 52.3326 34.3907 54.4404 34.3907 56.8972C34.3907 60.0487 31.9152 62.6258 28.7869 62.8226C29.0931 63.5403 29.2628 64.3293 29.2628 65.1583C29.2628 68.4683 26.5574 71.1514 23.2199 71.1514C21.1331 71.1514 19.2933 70.1024 18.2078 68.5075C17.0405 70.1807 15.0938 71.2769 12.8877 71.2769C9.31669 71.2769 6.42184 68.406 6.42184 64.8645C6.42184 63.8849 6.64452 62.957 7.0405 62.1271C4.20042 61.8341 1.98529 59.4529 1.98529 56.5579C1.98529 54.1705 3.49287 52.1331 5.61463 51.3281C7.36285 49.9353 7.04499 49.1749 6.28805 43.6689C5.93787 41.1212 5.48802 37.6545 5.01213 33.6981C13.2208 29.8627 23.2127 31.6829 28.2787 33.0445C27.2524 42.4686 26.3661 48.8347 26.4766 49.6905C26.6418 50.9309 28.3783 50.2568 30.7434 51.4287H30.7425Z" fill="#F4E9E3"/>
<path d="M17.0871 60.0228C20.5827 60.0228 23.5853 54.6451 22.1953 53.3566C20.1292 51.4403 19.3274 53.4902 17.3556 53.4902C15.3838 53.4902 13.9687 51.5907 12.2025 53.0013C10.3654 54.4679 13.7712 60.0228 17.0871 60.0228V60.0228Z" fill="#EBA3A3"/>
<path d="M8.39365 57.0459C8.39365 56.4075 7.87196 55.8901 7.22816 55.8901C6.58437 55.8901 6.06268 56.4075 6.06268 57.0459C6.06268 57.6844 6.58437 58.2018 7.22816 58.2018C7.87196 58.2018 8.39365 57.6844 8.39365 57.0459Z" fill="#EBA3A3"/>
<path d="M14.5056 64.1396C14.5056 63.5011 13.984 62.9837 13.3402 62.9837C12.6964 62.9837 12.1747 63.5011 12.1747 64.1396C12.1747 64.778 12.6964 65.2954 13.3402 65.2954C13.984 65.2954 14.5056 64.778 14.5056 64.1396Z" fill="#EBA3A3"/>
<path d="M24.1986 63.9223C24.1986 63.2838 23.6769 62.7664 23.0331 62.7664C22.3893 62.7664 21.8676 63.2838 21.8676 63.9223C21.8676 64.5608 22.3893 65.0781 23.0331 65.0781C23.6769 65.0781 24.1986 64.5608 24.1986 63.9223Z" fill="#EBA3A3"/>
<path d="M29.3974 56.2516C29.3974 55.6131 28.8757 55.0957 28.2319 55.0957C27.5882 55.0957 27.0665 55.6131 27.0665 56.2516C27.0665 56.89 27.5882 57.4074 28.2319 57.4074C28.8757 57.4074 29.3974 56.89 29.3974 56.2516Z" fill="#EBA3A3"/>
<path d="M16.8689 46.6102C15.8256 46.6102 14.7876 46.7625 13.8681 47.0662C13.6571 47.1356 13.5422 47.3627 13.6131 47.572C13.6841 47.7812 13.9121 47.8952 14.1231 47.8249C15.7807 47.2772 17.95 47.2772 19.6516 47.8258C19.8626 47.8934 20.0906 47.7794 20.1598 47.5693C20.2289 47.3591 20.1131 47.1338 19.9012 47.0653C18.9602 46.7616 17.9123 46.6102 16.8689 46.6102V46.6102Z" fill="#E6DEBE"/>
<path d="M319.775 69.5005C319.388 69.8673 318.716 72.1336 318.816 73C320.598 72.317 321.617 70.6892 321.617 70.6892C320.716 69.7168 319.775 69.4996 319.775 69.4996V69.5005Z" fill="white"/>
<path d="M336.421 70.5191C336.624 71.0098 338.504 72.4595 339.355 72.6839C339.366 70.7898 338.212 69.2538 338.212 69.2538C336.969 69.7302 336.421 70.5191 336.421 70.5191Z" fill="white"/>
<path d="M344.344 59.4684C344.796 59.7515 347.176 59.8495 348 59.5423C346.9 57.9937 345.061 57.4069 345.061 57.4069C344.327 58.5102 344.344 59.4684 344.344 59.4684Z" fill="white"/>
<path d="M313.358 57.8611C312.32 58.5521 311 60.675 311 60.675C313.205 60.545 314.752 59.5619 314.752 59.5619C313.934 57.7035 313.357 57.8611 313.357 57.8611H313.358Z" fill="white"/>
<path d="M341.742 51.4292C343.887 52.3331 345.391 54.4408 345.391 56.8976C345.391 60.049 342.915 62.626 339.787 62.8228C340.094 63.5405 340.263 64.3295 340.263 65.1585C340.263 68.4684 337.557 71.1514 334.219 71.1514C332.133 71.1514 330.293 70.1024 329.207 68.5076C328.04 70.1808 326.093 71.277 323.887 71.277C320.316 71.277 317.421 68.4061 317.421 64.8647C317.421 63.8851 317.644 62.9573 318.04 62.1273C314.963 61.8344 312.968 59.7685 312.984 56.5583C312.996 54.1941 314.751 52.0018 316.614 51.3286C319.736 49.8691 320.29 50.358 319.393 43.7364C318.139 34.4711 315.2 13.0054 314.752 0.00268555L341.845 0.00268555C340.836 25.3998 337.259 48.0241 337.475 49.6919C337.641 50.9323 339.377 50.2582 341.742 51.4301V51.4292Z" fill="#C26E40"/>
<path d="M319.393 43.7355C319.409 43.8575 319.425 43.9768 319.441 44.0944C319.445 44.1238 319.449 44.1523 319.453 44.1817C319.465 44.2734 319.477 44.3642 319.488 44.4533C319.492 44.48 319.495 44.5067 319.499 44.5334C319.529 44.7649 319.556 44.9875 319.581 45.2004V45.2004C320.204 39.5111 321.307 36.6866 320.353 32.8593C319.621 29.9279 319.904 28.2823 320.212 26.6794V26.6794C323.162 17.6928 324.752 23.5699 325.641 16.2235C326.529 8.87712 329.097 5.80588 331.18 9.81211C333.263 13.8192 330.765 15.4221 333.765 17.2921C336.574 19.0427 337.215 22.1478 336.792 25.7952C336.405 26.9973 336.149 28.0908 336.496 29.3126C337.983 34.5512 335.025 37.7996 336.361 40.398C337.722 43.0454 337.543 45.1131 337.721 46.5939V46.5939C338.527 39.3241 341.029 20.5726 341.846 0L314.752 0C315.201 13.0027 318.14 34.4684 319.394 43.7337L319.393 43.7355Z" fill="#A6562A"/>
<path d="M328.088 60.0231C331.583 60.0231 334.586 54.6456 333.197 53.3571C331.131 51.4408 330.329 53.4906 328.357 53.4906C326.385 53.4906 324.97 51.5913 323.204 53.0018C321.367 54.4684 324.772 60.0231 328.088 60.0231H328.088Z" fill="#EBA3A3"/>
<path d="M319.393 57.0463C319.393 56.4079 318.871 55.8905 318.227 55.8905C317.584 55.8905 317.062 56.4079 317.062 57.0463C317.062 57.6848 317.584 58.2022 318.227 58.2022C318.871 58.2022 319.393 57.6848 319.393 57.0463Z" fill="#EBA3A3"/>
<path d="M325.505 64.1398C325.505 63.5013 324.983 62.9839 324.34 62.9839C323.696 62.9839 323.174 63.5013 323.174 64.1398C323.174 64.7782 323.696 65.2956 324.34 65.2956C324.983 65.2956 325.505 64.7782 325.505 64.1398Z" fill="#EBA3A3"/>
<path d="M335.199 63.9226C335.199 63.2841 334.677 62.7667 334.034 62.7667C333.39 62.7667 332.868 63.2841 332.868 63.9226C332.868 64.561 333.39 65.0784 334.034 65.0784C334.677 65.0784 335.199 64.561 335.199 63.9226Z" fill="#EBA3A3"/>
<path d="M340.397 56.252C340.397 55.6136 339.876 55.0962 339.232 55.0962C338.588 55.0962 338.066 55.6136 338.066 56.252C338.066 56.8905 338.588 57.4079 339.232 57.4079C339.876 57.4079 340.397 56.8905 340.397 56.252Z" fill="#EBA3A3"/>
<path d="M327.868 46.6108C326.825 46.6108 325.787 46.7631 324.867 47.0668C324.656 47.1362 324.542 47.3633 324.612 47.5725C324.682 47.7818 324.91 47.8958 325.122 47.8254C326.778 47.2778 328.949 47.2778 330.65 47.8263C330.862 47.894 331.089 47.78 331.158 47.5699C331.228 47.3597 331.112 47.1344 330.9 47.0659C329.959 46.7622 328.91 46.6108 327.868 46.6108H327.868Z" fill="#CCC5A9"/>
<path d="M112.934 41.8573C112.803 50.0456 104.373 58.6467 107.833 64.4516C109.026 66.3553 111.299 66.3027 112.803 66.2893C115.288 66.267 113.979 69.7936 116.796 70.9617C118.344 71.6037 120.213 71.7179 122.742 69.9381C123.885 69.3264 125.016 72.2297 127.978 71.9854C131.498 71.6947 131.516 67.4779 132.237 67.3335C133.338 67.1123 136.039 68.4641 137.861 65.7891C141.288 60.7538 136.029 53.6069 134.548 48.8008C131.124 38.9861 136.231 0 136.231 0L109.675 0C109.675 0 113.335 34.9387 112.934 41.8573V41.8573Z" fill="#FCD228"/>
<path d="M123.57 57.8165C121.123 57.8165 121.311 56.216 119.303 54.7732C117.402 53.4063 117.735 51.6773 119.053 50.9952C120.928 50.0241 122.523 51.5462 123.621 51.5462C124.719 51.5462 126.676 49.6568 128.495 51.2047C130.315 52.7527 128.507 54.3622 127.459 55.1932C126.236 56.1642 125.922 57.8174 123.569 57.8174L123.57 57.8165Z" fill="#593524"/>
<path d="M110.475 62.8376C108.843 61.7301 112.18 57.6257 113.508 58.5201C114.836 59.4144 113.206 64.6923 110.475 62.8376Z" fill="#593524"/>
<path d="M118.468 67.3638C116.122 67.0133 117.611 61.9281 119.43 62.1251C121.249 62.3222 121.12 67.7597 118.468 67.3638Z" fill="#593524"/>
<path d="M127.903 67.3237C125.283 67.642 124.983 62.4845 126.673 62.1983C128.97 61.8104 130.374 67.0232 127.903 67.3237Z" fill="#593524"/>
<path d="M136.149 64.3535C134.211 65.6357 132.026 61.1194 133.205 59.9727C134.258 58.9606 137.777 63.2763 136.149 64.3535Z" fill="#593524"/>
<path d="M123.77 43.5791C121.967 43.5791 120.115 44.0089 118.301 44.8685C117.994 45.0138 117.902 45.3179 118.097 45.5479C118.292 45.778 118.698 45.8458 119.005 45.7004C122.209 44.1828 125.391 44.1783 128.21 45.6853C128.505 45.8431 128.917 45.7923 129.127 45.5711C129.339 45.35 129.27 45.0423 128.974 44.8845C127.348 44.0151 125.584 43.58 123.771 43.58L123.77 43.5791Z" fill="#DED6B8"/>
<path d="M115.486 30.4946C119.864 31.561 120.888 32.8085 119.668 33.2534C117.152 32.8299 114.872 33.8098 112.841 36.5312C112.75 34.7042 112.613 32.5891 112.448 30.3153C113.268 30.1834 114.272 30.1985 115.486 30.4937V30.4946Z" fill="#FFF2BF"/>
<path d="M118.01 12.3078C120.584 11.9521 122.624 15.9566 120.373 15.8683C118.122 15.7791 118.719 18.8947 115.969 18.8947C113.617 18.8947 113.016 19.0908 111.689 20.9652C111.425 17.9477 111.147 14.9454 110.886 12.1955C113.031 11.2494 115.968 12.5914 118.01 12.3087V12.3078Z" fill="#FFF2BF"/>
<path d="M133.551 29.5664C131.984 28.4651 131.264 27.0777 130.007 26.2823C128.322 25.2141 127.789 25.5699 126.901 26.2823C126.014 26.9939 124.239 25.8374 124.239 25.1249C124.239 24.4125 125.748 21.9211 126.99 21.7428C128.232 21.5644 130.362 21.2086 131.427 20.8529C131.959 20.6754 132.998 20.918 134.072 21.1516C133.86 23.9309 133.678 26.7816 133.551 29.5664V29.5664Z" fill="#FFF2BF"/>
<path d="M134.96 11.1915C130.431 7.92705 128.019 7.47586 126.184 8.03584C124.142 8.65912 121.569 7.32339 121.347 6.07771C121.125 4.83203 127.781 2.07228 131.597 2.78473C133.293 3.10128 134.637 3.71565 135.718 4.20875C135.502 6.07949 135.235 8.47544 134.96 11.1924V11.1915Z" fill="#FFF2BF"/>
<path d="M421.324 0.0656247C420.615 1.12756 421.334 1.52557 420.867 2.15582C421.632 2.95183 421.135 4.08025 420.972 4.24601C421.813 4.67327 421.454 5.70596 421.355 5.9382C422.003 6.51261 421.838 7.1987 421.734 7.56391C422.154 7.98496 422.282 8.69233 422.008 9.09033C422.33 9.71615 422.145 10.2852 421.939 10.6832C422.932 11.8117 422.182 12.707 422.182 12.707C422.684 13.2752 422.454 14.3663 422.454 14.3663C422.884 15.3237 422.248 16.0585 422.248 16.0585C422.83 16.921 422.89 17.5185 422.603 17.585C423.171 18.3242 423.087 18.8455 422.77 19.3099C423.297 19.6698 422.967 20.9357 422.692 21.2016C423.274 21.5668 423.207 22.595 423.103 22.9603C423.607 23.0666 423.481 24.2872 423.172 24.586C423.412 24.984 423.92 25.7472 423.443 26.0787C424.131 27.0077 424.131 27.8374 423.446 27.6379C424.121 28.9942 423.754 29.4294 423.412 29.1971C424.281 30.962 424.028 31.5533 423.446 31.7855C424.953 33.046 423.206 33.8092 423.035 33.8092C424.592 35.0733 424.663 36.2974 424.054 36.1653C424.165 37.1271 425.296 39.118 423.856 38.986C424.576 39.6827 424.986 40.6781 423.754 41.0762C424.371 42.4031 424.542 43.0006 424.096 43.8631C424.747 44.925 425.501 46.5507 424.336 47.1145C425.063 48.2456 423.823 49.2047 423.617 49.1719C423.719 50.7311 422.897 50.8313 422.418 50.8313C423.411 51.7275 422.829 53.4196 421.938 53.2867C422.463 54.158 421.356 54.6473 420.671 54.7138C421.082 55.3778 421.253 56.7375 419.815 56.7375C420.553 57.6745 419.82 59.3259 418.653 59.2922C419.466 60.1636 418.582 61.6147 418 61.6811C418.617 62.5773 418.274 63.3733 418 63.805C419.472 64.1037 419.918 64.6347 420.192 65.9945C420.912 65.4972 421.528 65.8287 421.631 66.2932C422.35 65.663 423.172 66.0938 423.412 66.459C423.565 65.9617 424.857 66.0778 424.923 66.7825C425.988 66.5919 426.084 67.9854 425.844 68.2504C426.666 68.2832 427.316 69.3789 426.974 70.3743C428.195 70.119 428.412 70.8716 428.412 71.0383C429.098 70.806 429.267 71.5222 429.464 72C430.44 71.4691 430.707 71.4026 431.221 71.8343C431.597 70.6624 432.523 71.0383 432.797 71.337C432.833 70.9673 433.351 70.2254 434.121 70.4355C434.294 69.8939 435.001 69.6288 435.33 70.158C436.332 69.3957 437.136 70.0127 437.136 70.2307C437.972 69.979 438.255 70.4851 438.255 70.8113C439.232 70.5764 439.625 71.0711 439.648 71.1375C440.379 70.8947 440.675 71.2705 440.675 71.2705C441.361 70.7395 441.931 71.204 441.931 71.204C442.296 70.4302 442.935 70.4745 443.027 70.5401C443.165 69.7006 443.872 69.6333 443.872 69.6333C443.869 68.8514 444.488 68.4605 444.488 68.4605C444.329 67.6069 444.762 67.4429 444.762 67.4429C445.009 66.0273 446.162 66.4696 446.162 66.5583C446.802 65.9608 447.662 66.5583 447.662 66.5583C448.33 65.8819 449.054 66.6691 449.054 66.5804C449.374 65.8066 449.728 65.7622 450.322 65.9608C450.105 65.3527 450.71 65.0762 451.053 65.1648C450.961 64.5009 451.099 64.3023 451.464 64.258C451.246 63.8387 451.475 63.3955 451.806 63.2962C451.337 63.0746 451.726 62.3123 452 62.3229C451.806 61.7813 451.521 61.4267 451.92 61.1723C451.418 61.0837 451.403 60.4534 451.599 60.2434C451.123 59.895 451.693 59.856 451.201 59.2701C450.711 58.6841 450.539 58.6398 450.665 58.3854C450.414 58.0096 450.025 57.717 450.185 57.46C449.808 56.9698 449.592 56.6711 449.729 56.2624C449.341 55.7314 448.816 55.8972 449.078 55.3441C448.622 54.7803 448.199 54.9124 448.542 54.338C447.937 54.2387 447.72 53.807 447.8 53.6519C447.194 53.4861 446.738 53.1378 447.046 52.6901C446.344 52.4579 446.173 51.9934 446.515 51.5954C445.659 51.2807 445.642 50.8986 445.865 50.5166C444.854 50.334 444.734 49.7702 444.974 49.4883C444.387 48.9538 443.827 48.9911 444.495 48.5266C444.426 48.0621 443.929 47.9956 444.46 47.4646C443.998 46.3867 444.186 45.8221 444.597 45.6235C444.152 45.2255 444.764 45.3629 444.441 44.6635C444.118 43.9641 444.289 43.3507 444.7 43.1681C444.357 42.5379 444.597 41.9732 444.853 41.9404C444.083 41.4094 444.767 40.7296 445.024 40.6799C444.408 40.149 444.716 38.8884 444.991 38.8388C444.254 38.3078 444.628 37.7228 444.886 37.6085C444.237 36.6981 444.887 35.8028 445.333 35.6034C444.785 35.2222 444.511 34.9731 445.007 34.6079C444.853 33.9608 445.144 33.2313 445.487 33.1311C444.819 32.5833 445.076 32.0523 445.52 31.9867C445.007 31.29 445.281 30.908 445.572 30.8087C445.11 30.5764 444.984 29.8602 445.432 29.7618C445.177 29.1989 445.383 28.6183 445.845 28.5855C445.366 28.1875 445.657 27.3747 445.965 27.3578C445.627 27.0431 445.52 25.9971 446 25.8979C445.64 25.1178 445.538 24.1064 446.222 23.9238C445.907 23.1783 445.434 22.4807 446.188 22.0986C445.966 21.2858 445.572 20.6387 446.222 20.34C446 19.676 446.222 18.4155 446.942 18.2826C446.034 17.4866 445.914 16.0931 446.736 15.844C446.119 15.3467 446.256 14.3344 446.907 14.2183C446.119 13.5384 446.376 11.6299 447.42 11.5475C446.564 10.6682 446.803 9.44047 447.369 9.30751C447.129 8.59394 446.992 7.83072 447.626 7.58252C446.581 7.2838 447.129 5.60845 447.78 5.47549C447.147 5.11028 448.071 4.64579 447.78 3.66718C447.489 2.68856 447.214 2.24003 447.917 2.09111C447.318 1.79238 447.9 0.250001 448.157 0.000915527C446.667 0.000915527 421.321 0.0673975 421.321 0.0673975L421.324 0.0656247Z" fill="#CFB897"/>
<path d="M444.826 4.4605C445.738 4.56687 444.643 2.60875 446.29 2.70271C447.534 2.77274 446.388 0.0141828 447.653 0C445.649 0.00354571 438.751 0.0203878 432.518 0.0363435C431.44 0.903269 433.611 1.52731 433.205 3.01296C432.564 4.9631 434.488 3.17075 434.183 5.28842C433.95 6.9026 436.316 5.84953 436.316 8.15424C436.316 10.4589 437.943 7.38659 439.031 9.2472C440.312 9.9856 440.257 6.49485 441.205 7.29263C442.152 8.09042 441.623 4.78582 442.935 5.5836C444.908 6.78382 443.81 4.3426 444.827 4.4605H444.826Z" fill="#F4E9E3"/>
<path d="M434.65 59.6237C439.356 59.6237 440.634 54.9123 438.921 53.6509C437.208 52.3905 436.661 54.5134 434.742 54.5134C432.823 54.5134 432.207 52.3896 430.494 53.8495C428.781 55.3095 430.357 59.6228 434.649 59.6228L434.65 59.6237Z" fill="#593524"/>
<path d="M423.796 61.3966C422.518 60.2939 425.396 58.0645 426.355 58.7275C427.314 59.3915 425.19 62.5986 423.796 61.3966Z" fill="#593524"/>
<path d="M430.265 66.2728C428.706 65.6567 429.939 62.4275 431.418 62.7714C433.104 63.1632 431.809 66.8827 430.265 66.2728Z" fill="#593524"/>
<path d="M439.958 66.0734C438.495 66.4643 437.462 63.1641 438.76 62.7776C440.058 62.3911 441.67 65.616 439.958 66.0734Z" fill="#593524"/>
<path d="M445.803 60.3976C444.736 61.2131 442.606 58.6761 443.656 57.8801C444.707 57.0841 447.082 59.4207 445.803 60.3976Z" fill="#593524"/>
<path d="M423.532 26.2037C423.504 26.162 423.476 26.1203 423.445 26.0787C423.921 25.7472 423.413 24.9839 423.174 24.5859C423.482 24.2872 423.609 23.0666 423.105 22.9602C423.208 22.595 423.276 21.5668 422.694 21.2016C422.968 20.9365 423.298 19.6707 422.772 19.3099C423.09 18.8454 423.173 18.3242 422.605 17.5849C422.892 17.5185 422.832 16.921 422.25 16.0585C422.25 16.0585 422.886 15.3237 422.455 14.3663C422.455 14.3663 422.686 13.2751 422.184 12.7069C422.184 12.7069 422.405 12.4419 422.448 12.0191C423.099 11.91 423.806 11.8161 424.487 12.0988C425.765 12.6298 425.492 12.0102 425.675 13.4258C425.858 14.8415 426.771 13.5145 426.953 15.8147C427.136 18.115 428.779 16.6994 427.775 17.6727C426.77 18.646 428.871 19.2656 428.231 19.442C427.592 19.6193 430.697 22.1846 429.51 22.5392C428.322 22.8929 429.966 24.0434 428.962 23.7775C427.957 23.5125 427.774 25.8128 427.044 25.8128C426.313 25.8128 425.947 27.1397 425.034 26.3437C424.279 25.6851 424.397 26.5379 423.532 26.2037H423.532Z" fill="#F4E9E3"/>
<path d="M445.488 33.1293C445.374 33.163 445.266 33.2676 445.177 33.4147C443.621 34.7373 441.989 34.5653 442.846 31.9149C443.759 29.0872 439.375 29.7946 441.384 28.4676C443.394 27.1406 441.019 27.2292 441.933 26.1673C442.846 25.1054 439.953 24.398 440.851 23.9557C441.749 23.5133 441.566 23.071 441.566 23.071C441.566 23.071 441.293 23.071 441.383 22.0977C441.475 21.1244 441.2 20.5048 441.566 19.7088C441.932 18.9128 442.571 19.0892 442.571 18.6469C442.571 18.2045 443.484 18.8241 443.576 18.0273C443.667 17.2312 445.391 17.6736 445.488 17.2312C445.585 16.7889 445.3 14.8423 445.488 14.931C445.639 15.001 445.497 14.064 446.446 14.5711C446.252 14.9425 446.324 15.5089 446.738 15.8431C445.917 16.0922 446.037 17.4856 446.944 18.2817C446.225 18.4146 446.003 19.6751 446.225 20.3391C445.574 20.6378 445.968 21.2849 446.191 22.0977C445.437 22.4789 445.909 23.1765 446.225 23.9229C445.54 24.1055 445.643 25.1178 446.003 25.8969C445.523 25.9962 445.629 27.0422 445.968 27.3569C445.66 27.3737 445.369 28.1866 445.848 28.5846C445.386 28.6174 445.18 29.198 445.434 29.7609C444.987 29.8593 445.111 30.5755 445.574 30.8078C445.283 30.907 445.009 31.2891 445.523 31.9858C445.078 32.0523 444.821 32.5833 445.489 33.1302L445.488 33.1293Z" fill="#F4E9E3"/>
<path d="M423.766 49.1249C424.145 48.921 424.96 48.0807 424.339 47.1145C425.504 46.5507 424.749 44.925 424.099 43.863C424.545 43.0006 424.372 42.4031 423.757 41.0761C424.989 40.6781 424.578 39.6827 423.859 38.9859C425.191 39.1091 424.32 37.4099 424.096 36.394C425.112 36.3559 425.622 37.8814 426.131 37.6696C426.771 37.4045 425.126 39.5275 426.131 39.4389C427.136 39.3502 427.044 40.9432 428.232 40.7659C429.42 40.5886 428.23 42.6238 429.784 42.3588C431.338 42.0937 428.78 43.067 429.328 44.2167C429.877 45.3673 425.858 44.394 426.314 45.8974C426.771 47.4017 426.04 46.8707 425.583 48.2863C425.365 48.96 424.589 49.1727 423.766 49.124V49.1249Z" fill="#F4E9E3"/>
<path d="M214.766 49.7035C213.005 56.2827 207.048 59.395 209.646 63.529C211.936 67.1731 215.639 64.5516 216.278 64.8179C216.916 65.0843 215.683 69.416 219.119 70.5526C222.848 71.7863 224.139 68.152 225.046 68.0184C225.953 67.8848 227.487 72.0865 231.406 70.7299C234.049 69.8186 234.216 67.1847 233.813 65.0174C233.746 64.3173 234.454 65.502 236.595 66.04C239.423 66.7509 242.312 63.9895 240.364 59.7219C238.415 55.4543 234.07 50.6798 233.847 48.7682C233.622 46.8566 236.265 11.8694 237.071 0L211.307 0C211.307 0 215.779 45.9196 214.767 49.7017L214.766 49.7035Z" fill="#262521"/>
<path d="M224.751 56.9498C229.367 56.9498 230.621 52.2154 228.941 50.9479C227.261 49.6812 226.724 51.8146 224.842 51.8146C222.96 51.8146 222.356 49.6803 220.677 51.1474C218.997 52.6145 220.543 56.9489 224.751 56.9489V56.9498Z" fill="#F4E9E3"/>
<path d="M213.123 61.6174C211.77 60.6305 214.306 58.2388 215.541 59.2168C216.445 59.9321 214.528 62.6427 213.123 61.6174Z" fill="#F4E9E3"/>
<path d="M221.167 65.9724C220.047 65.8004 220.428 62.4743 222.179 62.4218C223.929 62.3692 223.229 66.2895 221.167 65.9724Z" fill="#F4E9E3"/>
<path d="M230.094 65.9171C228.708 66.4587 227.648 63.2546 228.872 62.7344C230.096 62.2142 231.714 65.2829 230.094 65.9171Z" fill="#F4E9E3"/>
<path d="M237.006 61.4402C235.992 62.2998 233.806 59.8324 234.804 58.9933C235.802 58.1542 238.222 60.4105 237.006 61.4402Z" fill="#F4E9E3"/>
<path d="M237.07 0.00177002C236.591 7.06371 235.461 22.3082 234.671 33.9023C227.526 33.7357 227.35 28.6575 229.752 22.9415C232.441 16.5396 218.401 17.6067 222.666 10.2713C224.931 6.37694 223.346 2.93415 222.657 0.00177002L237.069 0.00177002L237.07 0.00177002Z" fill="#F4E9E3"/>
<path d="M527.766 49.7035C526.005 56.2827 520.048 59.395 522.646 63.529C524.936 67.1731 528.639 64.5516 529.278 64.8179C529.916 65.0843 528.683 69.416 532.119 70.5526C535.848 71.7863 537.139 68.152 538.046 68.0184C538.953 67.8848 540.487 72.0865 544.406 70.7299C547.048 69.8186 547.216 67.1847 546.813 65.0174C546.746 64.3173 547.454 65.502 549.595 66.04C552.423 66.7509 555.312 63.9895 553.364 59.7219C551.415 55.4543 547.07 50.6798 546.847 48.7682C546.623 46.8566 549.265 11.8694 550.071 0L524.307 0C524.307 0 528.779 45.9196 527.767 49.7017L527.766 49.7035Z" fill="#D18925"/>
<path d="M537.751 58.8107C542.367 58.8107 543.621 54.0763 541.941 52.8087C540.262 51.5421 539.724 53.6754 537.843 53.6754C535.962 53.6754 535.357 51.5412 533.678 53.0083C531.999 54.4753 533.544 58.8098 537.752 58.8098L537.751 58.8107Z" fill="#593524"/>
<path d="M527.018 60.773C525.666 59.786 528.201 57.3943 529.437 58.3724C530.341 59.0877 528.424 61.7983 527.018 60.773Z" fill="#593524"/>
<path d="M534.167 65.9724C533.047 65.8004 533.428 62.4743 535.179 62.4218C536.929 62.3692 536.229 66.2895 534.167 65.9724Z" fill="#593524"/>
<path d="M543.094 65.9171C541.708 66.4587 540.648 63.2546 541.872 62.7344C543.096 62.2142 544.714 65.2829 543.094 65.9171Z" fill="#593524"/>
<path d="M549.56 61.0402C548.546 61.8998 546.359 59.4324 547.357 58.5933C548.355 57.7542 550.775 60.0105 549.56 61.0402Z" fill="#593524"/>
<path d="M548.949 15.7825C547.45 15.6391 545.931 15.1456 544.545 16.9512C542.126 20.1018 539.103 9.99968 539.305 15.8012C539.507 21.6027 534.468 14.8009 533.534 21.4139C532.599 28.026 529.833 16.4016 527.255 22.8035C526.967 23.5187 526.721 24.0977 526.508 24.5538C525.495 12.2088 524.306 0.00268555 524.306 0.00268555L550.069 0.00268555C549.823 3.6352 549.404 9.43227 548.948 15.7834L548.949 15.7825Z" fill="#FCD228"/>
<path d="M863.976 0.000892639C865.794 2.27219 864.27 3.84688 863.449 8.25603C862.628 12.6661 864.739 13.5264 862.921 17.2434C860.63 21.9292 863.976 24.2565 862.217 27.155C860.296 30.3213 863.038 29.6746 861.397 33.0766C859.755 36.4787 862.62 37.5329 861.983 40.3843C861.345 43.2356 864.175 44.9945 863.079 47.1617C861.983 49.3298 865.675 50.9418 864.679 53.9071C863.684 56.8723 866.037 60.1569 864.406 61.0048C861.726 62.3971 863.194 65.4566 862.041 65.3303C860.16 65.1248 858.406 64.2591 858.523 65.6452C858.64 67.0313 858.817 66.9681 857.292 67.6612C855.768 68.3542 858.072 70.4956 855.982 69.9921C853.891 69.4885 854.361 71.5348 853.129 70.3222C851.898 69.1096 853.005 71.4743 851.339 69.8026C848.5 66.9548 849.715 70.9787 848.226 70.9396C846.439 70.8924 846.541 72.7189 845.438 71.6798C844.5 70.7963 843.382 72.436 842.95 71.1762C842.517 69.9165 841.805 70.9876 841.484 69.0971C841.163 67.2075 840.868 68.5615 840.818 66.7164C840.777 65.252 839.46 68.4174 837.969 66.7795C836.479 65.1417 834.451 67.0527 834.619 64.8276C834.788 62.6035 831.465 61.1702 832.52 58.9648C833.575 56.7602 831.145 55.7842 832.338 54.1366C833.533 52.4898 830.91 51.0931 832.727 49.4543C834.545 47.8165 831.672 46.9953 833.422 45.2222C835.172 43.4482 833.055 41.725 834.603 40.3202C836.152 38.9154 834.076 36.5401 835.541 35.4698C837.007 34.3986 833.866 33.3275 835.366 31.1861C836.864 29.0447 834.638 26.2102 835.693 25.2022C836.748 24.1943 834.438 22.1071 835.483 20.3509C836.527 18.5948 833.866 16.9613 835.072 15.6891C836.278 14.4169 833.899 13.2319 834.72 11.909C835.541 10.586 833.687 8.80584 834.38 7.49092C835.072 6.17601 834.78 4.97942 834.134 4.34954C833.489 3.71966 834.838 2.64852 834.193 1.51509C833.548 0.380777 834.662 0 834.662 0L863.976 0V0.000892639Z" fill="#F4E9E3"/>
<path d="M848.549 54.5112C850.817 54.5112 850.642 52.9 852.504 51.4481C854.267 50.0727 853.958 48.3316 852.736 47.6448C850.998 46.6679 849.518 48.199 848.501 48.199C847.484 48.199 845.669 46.2978 843.983 47.8556C842.296 49.4134 843.972 51.0335 844.942 51.8698C846.077 52.8466 846.367 54.5103 848.549 54.5103V54.5112Z" fill="#EBA3A3"/>
<path d="M859.775 59.8589C861.41 59.2317 859.463 54.6935 858.133 55.1971C856.805 55.7006 857.039 60.9087 859.775 59.8589Z" fill="#EBA3A3"/>
<path d="M852.677 64.1675C854.743 63.8365 853.431 59.0377 851.829 59.2237C850.226 59.4096 850.341 64.5412 852.677 64.1675Z" fill="#EBA3A3"/>
<path d="M844.506 64.6897C846.213 64.9344 846.538 60.196 845.053 59.7761C843.568 59.3562 842.747 64.4379 844.506 64.6897Z" fill="#EBA3A3"/>
<path d="M837.513 60.3286C839.15 61.2565 840.548 57.6854 839.524 56.81C838.61 56.0378 836.137 59.5501 837.513 60.3286Z" fill="#EBA3A3"/>
<path d="M733.774 69.5004C733.388 69.8672 732.716 72.1335 732.816 73C734.598 72.317 735.617 70.6892 735.617 70.6892C734.715 69.7167 733.774 69.4995 733.774 69.4995V69.5004Z" fill="white"/>
<path d="M750.422 70.5191C750.624 71.0098 752.505 72.4595 753.355 72.6839C753.366 70.7898 752.212 69.2537 752.212 69.2537C750.969 69.7301 750.422 70.5191 750.422 70.5191Z" fill="white"/>
<path d="M758.344 59.4681C758.796 59.7512 761.177 59.8492 762 59.542C760.9 57.9934 759.061 57.4066 759.061 57.4066C758.328 58.5099 758.344 59.4681 758.344 59.4681Z" fill="white"/>
<path d="M727.358 57.8607C726.32 58.5517 725 60.6747 725 60.6747C727.205 60.5447 728.751 59.5616 728.751 59.5616C727.934 57.7031 727.358 57.8607 727.358 57.8607Z" fill="white"/>
<path d="M755.742 51.4287C757.887 52.3326 759.391 54.4404 759.391 56.8972C759.391 60.0487 756.915 62.6258 753.787 62.8226C754.093 63.5403 754.263 64.3293 754.263 65.1583C754.263 68.4683 751.557 71.1514 748.22 71.1514C746.133 71.1514 744.293 70.1024 743.208 68.5075C742.04 70.1807 740.094 71.2769 737.888 71.2769C734.317 71.2769 731.422 68.406 731.422 64.8645C731.422 63.8849 731.645 62.957 732.04 62.1262C729.2 61.8332 726.986 59.4521 726.986 56.5571C726.986 54.1696 728.494 52.1322 730.616 51.3272C730.949 51.0618 731.207 50.8187 731.401 50.5614C733.453 48.2051 732.585 45.7411 732.225 46.9878C731.388 44.791 732.495 39.7151 731.267 42.506C730.98 41.6475 730.554 39.2886 730.848 36.5396C731.207 33.1852 730.519 32.8886 730.07 34.0463C728.723 30.633 729.621 28.9108 729.246 27.1156C729.246 27.1156 728.953 27.4139 728.797 27.9241C728.529 25.835 729.351 22.5589 729.067 20.3923C729.067 20.3923 728.498 20.541 728.416 21.7058C727.383 17.7431 728.685 15.272 728.124 13.7136C728.124 13.7136 727.742 13.7875 727.608 14.9158C726.71 12.4669 728.09 10.8133 727.675 7.39112C727.675 7.39112 727.357 7.5799 726.991 9.05901C726.747 5.87728 727.795 4.24501 727.705 2.28882e-05L755.845 2.28882e-05C755.845 2.28882e-05 757.256 3.11408 756.489 6.53625C756.489 6.53625 756.561 5.31449 756.001 4.69203C756.001 4.69203 755.911 6.26999 756.068 7.6921C756.226 9.11422 756.942 11.2915 756.046 13.5364C756.046 13.5364 756.068 12.3592 755.733 11.7813C755.733 11.7813 755.487 12.6254 755.575 13.9371C755.665 15.2479 756.136 17.0699 755.598 18.4706C755.598 18.4706 755.463 17.5151 755.195 17.3816C755.195 17.3816 754.926 17.915 755.017 19.2943C755.109 20.6737 755.536 22.3363 755.233 23.2864C755.233 23.2864 755.015 22.6702 754.715 22.8866C754.415 23.103 755.301 25.6694 754.713 27.1868C754.746 26.8368 754.46 26.104 754.259 26.12C754.159 26.1699 754.074 27.9865 754.209 29.0203C754.344 30.0533 754.494 31.5199 754.091 32.9866C754.091 32.9866 754.058 31.853 753.654 32.137C753.385 33.2537 754.142 36.3144 753.637 37.748C753.637 37.748 753.39 36.9368 753.111 36.9591C753.111 37.1479 753.514 39.1809 753.111 40.7811C752.663 39.8033 751.941 41.5211 752.663 43.9806C751.75 43.7242 752.348 45.2442 752.966 47.8471C751.514 48.4438 753.377 50.2577 755.742 51.4296V51.4287Z" fill="#FCD228"/>
<mask id="mask0_0_1026" style="mask-type:alpha" maskUnits="userSpaceOnUse" x="726" y="0" width="34" height="72">
<path fill-rule="evenodd" clip-rule="evenodd" d="M755.742 51.4287C757.887 52.3326 759.391 54.4404 759.391 56.8972C759.391 60.0487 756.915 62.6258 753.787 62.8226C754.093 63.5403 754.263 64.3293 754.263 65.1583C754.263 68.4683 751.557 71.1514 748.22 71.1514C746.133 71.1514 744.293 70.1024 743.208 68.5075C742.04 70.1807 740.094 71.2769 737.888 71.2769C734.317 71.2769 731.422 68.406 731.422 64.8645C731.422 63.8849 731.645 62.957 732.04 62.1262C729.2 61.8332 726.986 59.4521 726.986 56.5571C726.986 54.1696 728.494 52.1322 730.616 51.3272C730.949 51.0618 731.207 50.8187 731.401 50.5614C733.453 48.2051 732.585 45.7411 732.225 46.9878C731.388 44.791 732.495 39.7151 731.267 42.506C730.98 41.6475 730.554 39.2886 730.848 36.5396C731.207 33.1852 730.519 32.8886 730.07 34.0463C728.723 30.633 729.621 28.9108 729.246 27.1156C729.246 27.1156 728.953 27.4139 728.797 27.9241C728.529 25.835 729.351 22.5589 729.067 20.3923C729.067 20.3923 728.498 20.541 728.416 21.7058C727.383 17.7431 728.685 15.272 728.124 13.7136C728.124 13.7136 727.742 13.7875 727.608 14.9158C726.71 12.4669 728.09 10.8133 727.675 7.39112C727.675 7.39112 727.357 7.5799 726.991 9.05901C726.747 5.87728 727.795 4.24501 727.705 2.28882e-05L755.845 2.28882e-05C755.845 2.28882e-05 757.256 3.11408 756.489 6.53625C756.489 6.53625 756.561 5.31449 756.001 4.69203C756.001 4.69203 755.911 6.26999 756.068 7.6921C756.226 9.11422 756.942 11.2915 756.046 13.5364C756.046 13.5364 756.068 12.3592 755.733 11.7813C755.733 11.7813 755.487 12.6254 755.575 13.9371C755.665 15.2479 756.136 17.0699 755.598 18.4706C755.598 18.4706 755.463 17.5151 755.195 17.3816C755.195 17.3816 754.926 17.915 755.017 19.2943C755.109 20.6737 755.536 22.3363 755.233 23.2864C755.233 23.2864 755.015 22.6702 754.715 22.8866C754.415 23.103 755.301 25.6694 754.713 27.1868C754.746 26.8368 754.46 26.104 754.259 26.12C754.159 26.1699 754.074 27.9865 754.209 29.0203C754.344 30.0533 754.494 31.5199 754.091 32.9866C754.091 32.9866 754.058 31.853 753.654 32.137C753.385 33.2537 754.142 36.3144 753.637 37.748C753.637 37.748 753.39 36.9368 753.111 36.9591C753.111 37.1479 753.514 39.1809 753.111 40.7811C752.663 39.8033 751.941 41.5211 752.663 43.9806C751.75 43.7242 752.348 45.2442 752.966 47.8471C751.514 48.4438 753.377 50.2577 755.742 51.4296V51.4287Z" fill="white"/>
</mask>
<g mask="url(#mask0_0_1026)">
<path d="M734.571 28.8894C734.497 28.7755 734.418 28.6686 734.336 28.5653C734.158 28.7639 733.905 28.8983 733.596 28.8966C733.307 29.3258 732.717 29.6116 732.238 29.2581C731.272 28.5457 731.105 27.3587 731.885 26.4343C732.038 26.2536 732.252 26.1619 732.479 26.144C732.708 25.64 733.259 25.4023 733.781 25.5982C733.83 25.5528 733.884 25.5118 733.942 25.4788C734.445 25.1868 735.009 25.3907 735.321 25.8377C735.811 26.535 736.17 27.3052 736.414 28.12C736.75 29.2394 735.175 29.8245 734.572 28.8903L734.571 28.8894Z" fill="#593524"/>
<path d="M736.253 40.514C736.062 40.3857 735.884 40.2477 735.717 40.0999C735.339 40.0313 734.976 39.7748 734.921 39.3902C734.897 39.2219 734.874 39.1096 734.817 38.985C734.789 38.9342 734.76 38.8852 734.734 38.8327C734.419 38.1915 734.784 37.6065 735.287 37.4061C735.069 36.6724 735.371 35.9137 735.84 35.3562C736.675 34.366 738.094 35.7881 737.266 36.7703C737.228 36.8157 737.226 36.9734 737.284 37.017C737.64 37.2832 737.962 37.4979 738.152 37.9146C738.564 38.8202 738.062 39.6715 737.474 40.359C737.198 40.6814 736.601 40.7508 736.252 40.5157L736.253 40.514Z" fill="#593524"/>
<path d="M743.194 33.0872C743.202 33.0721 743.212 33.0552 743.224 33.0338C743.288 32.9162 743.336 32.7889 743.394 32.6687C743.583 32.2778 743.923 32.0133 744.331 31.8788C745.461 31.5048 746.112 32.7907 746.596 33.544C747.296 34.6358 745.55 35.6376 744.854 34.553C744.812 34.488 744.77 34.4221 744.729 34.3571C744.623 34.4986 744.493 34.6287 744.309 34.7444C743.846 35.0383 743.2 34.8415 742.93 34.3856C742.665 33.9367 742.805 33.3971 743.195 33.0872H743.194Z" fill="#593524"/>
<path d="M747.521 23.4984C747.498 23.4556 747.475 23.4138 747.452 23.371C747.032 23.1555 746.665 22.8474 746.389 22.4235C746.132 22.0299 745.939 21.6203 746.025 21.1439C746.12 20.6247 746.6 20.2053 747.141 20.1964C747.833 20.1857 748.24 20.6265 748.556 21.1573C748.931 20.6337 749.804 20.4636 750.252 21.1858C750.502 21.5892 750.763 21.9845 751.036 22.3737C751.162 22.5536 751.526 23.2045 751.799 23.4369C752.174 23.3746 752.583 23.3817 752.833 23.697C753.178 24.1324 753.322 24.6373 753.351 25.1912C753.386 25.8528 753.276 26.2464 752.716 26.6338C752.711 26.6365 752.706 26.6391 752.701 26.6418C752.647 26.8644 752.591 27.0862 752.536 27.3088C752.413 27.803 751.864 28.1325 751.365 28.0239C750.942 28.5074 750.329 28.836 749.665 28.8654C749.498 28.8725 749.34 28.8315 749.2 28.7567C749.02 28.8511 748.826 28.9188 748.617 28.9518C748.202 29.0159 747.676 28.9268 747.478 28.4923C747.013 27.4726 746.53 26.4602 746.095 25.4281C745.683 24.4494 746.524 23.3844 747.522 23.4993L747.521 23.4984Z" fill="#593524"/>
<path d="M729.106 16.0218C729.638 15.5525 730.309 15.7672 730.645 16.1982C730.993 16.0316 731.409 16.0548 731.711 16.4199C731.872 16.614 732.032 16.8081 732.193 17.0032C732.592 17.0112 732.993 17.216 733.171 17.6773C733.324 18.0735 733.476 18.4698 733.628 18.8652C733.947 19.6924 732.84 20.4342 732.155 20.021C732.164 20.0763 732.177 20.1315 732.185 20.1867C732.267 20.7254 732.058 21.2597 731.481 21.4164C731 21.5482 730.323 21.2579 730.241 20.7183C730.229 20.639 730.213 20.5625 730.199 20.485C730.014 20.4609 729.827 20.3826 729.656 20.233C729.483 20.0825 729.172 20.0629 728.958 20.0121C728.572 19.9195 728.2 19.7699 727.871 19.5482C727.426 19.2472 727.1 18.8313 726.832 18.3781C726.106 18.2445 725.638 17.2445 726.281 16.6817C726.385 16.5909 726.491 16.4991 726.595 16.4083C726.605 16.3985 726.618 16.3905 726.629 16.3816C726.671 16.3246 726.712 16.2667 726.757 16.2115C727 15.9675 727.325 15.7502 727.687 15.7582C728.144 15.768 728.573 15.9355 728.988 16.1367C729.028 16.0984 729.065 16.0592 729.107 16.0227L729.106 16.0218Z" fill="#593524"/>
<path d="M732.349 4.23343C732.158 4.32337 731.94 4.41153 731.711 4.48009C731.684 4.61367 731.652 4.74635 731.613 4.87993C731.389 5.63595 730.496 5.81227 729.928 5.32072C729.299 4.77841 728.874 4.06512 728.675 3.26368C728.524 2.65102 728.911 2.21201 729.384 2.06864C729.384 2.06686 729.384 2.06507 729.384 2.0624C729.385 1.99473 729.395 1.92972 729.411 1.86739C729.376 1.85047 729.342 1.83177 729.309 1.81396C729.213 1.84334 729.106 1.86026 728.988 1.86026C727.977 1.86026 727.752 0.64919 728.315 0.112222C728.513 -0.297405 728.972 -0.588596 729.428 -0.495985C729.448 -0.601954 729.484 -0.707032 729.539 -0.805877C730.136 -1.88783 731.319 -2.34376 732.509 -2.16833C732.844 -2.11846 733.129 -1.77473 733.213 -1.47018C733.343 -1.00268 733.119 -0.610858 732.75 -0.341039C732.852 -0.41584 732.742 -0.308981 732.682 -0.251989C732.693 -0.254661 732.654 -0.188764 732.621 -0.136225C732.986 -0.268909 733.383 -0.331243 733.759 -0.357068C734.283 -0.393578 734.801 0.12558 734.767 0.642957C734.67 2.18885 733.773 3.56556 732.348 4.23432L732.349 4.23343Z" fill="#593524"/>
<path d="M751.297 2.12922C751.185 2.24053 751.039 2.32869 750.861 2.37944C750.703 2.42397 750.544 2.46315 750.385 2.49877C750.3 2.92086 749.974 3.27261 749.434 3.25569C749.409 3.25569 749.384 3.25391 749.358 3.25302C749.129 3.54866 748.9 3.84342 748.671 4.13906C747.883 5.15244 746.455 4.34476 746.912 3.17287C746.416 3.13815 745.989 2.76503 745.949 2.26457C745.828 2.21203 745.716 2.13367 745.619 2.0366C745.043 2.00009 744.523 1.82823 744.224 1.2877C743.731 0.394534 744.265 -0.590352 745.002 -1.12999C745.426 -1.44077 746.063 -1.47996 746.568 -1.49777C746.897 -1.50934 747.461 -1.38289 747.735 -1.62422C748.462 -2.26626 749.451 -1.62956 749.485 -0.910039C749.612 -0.891339 749.732 -0.853048 749.834 -0.793385C749.86 -0.778246 749.885 -0.762217 749.908 -0.745298C750.004 -0.729269 750.1 -0.698102 750.195 -0.650906C750.878 -0.309847 751.561 0.0312124 752.243 0.372272C753.381 0.940407 752.425 2.60563 751.297 2.131V2.12922Z" fill="#593524"/>
<path d="M734.239 13.3156C734.003 13.5365 733.685 13.6469 733.32 13.5409C732.518 13.3103 731.159 13.1838 730.896 12.2337C730.725 11.6192 731.1 11.0725 731.659 10.8463C732.228 10.6165 732.663 11.0083 733.064 11.3423C733.366 10.9424 733.843 10.8231 734.369 11.0564C734.749 11.2238 735.002 11.499 735.244 11.824C735.572 12.263 735.318 12.9389 734.882 13.1918C734.667 13.3174 734.446 13.3503 734.239 13.3147L734.239 13.3156Z" fill="#593524"/>
<path d="M739.854 20.9186C739.861 20.8955 739.868 20.8732 739.874 20.8492C739.874 20.8421 739.874 20.8349 739.874 20.8242C739.874 20.8153 739.874 20.8091 739.873 20.802C739.868 20.786 739.867 20.7699 739.862 20.7548C739.722 20.2285 740.033 19.6702 740.566 19.525C741.091 19.3816 741.666 19.6969 741.806 20.2232C741.971 20.8438 741.885 21.5651 741.488 22.0879C741.159 22.5224 740.624 22.7459 740.109 22.4467C739.676 22.1956 739.416 21.5153 739.747 21.0789C739.787 21.0273 739.821 20.9747 739.854 20.9195V20.9186Z" fill="#593524"/>
<path d="M749.199 39.5202C749.748 39.5202 750.207 39.9752 750.207 40.5202V40.7873C750.207 41.3323 749.748 41.7874 749.199 41.7874C748.649 41.7874 748.19 41.3323 748.19 40.7873V40.5202C748.19 39.9752 748.649 39.5202 749.199 39.5202Z" fill="#593524"/>
<path d="M751.877 15.9604C752.559 15.5686 753.298 15.7778 753.856 16.2694C754.099 16.4831 754.23 16.809 754.353 17.1011C754.593 17.0343 754.854 17.0575 755.103 17.2008C755.548 17.4591 755.781 18.1216 755.465 18.5686C755.273 18.8402 755.038 19.0272 754.778 19.1332C754.804 19.4057 754.719 19.6818 754.495 19.9035C754.131 20.265 753.426 20.3194 753.069 19.9035C752.58 19.3327 752.022 18.7788 751.596 18.1599C751.132 17.484 751.063 16.427 751.877 15.9595V15.9604Z" fill="#593524"/>
<path d="M744.635 6.69924C744.758 7.01893 744.879 7.33773 745.001 7.65742C745.038 7.7527 745.057 7.84442 745.063 7.93169C745.347 8.0145 745.579 8.22555 745.637 8.59689C745.759 9.3823 745.808 10.0938 745.4 10.8089C745.332 10.9291 745.245 11.0404 745.145 11.141C745.227 11.662 745.263 12.1909 745.247 12.7199C745.215 13.7511 743.914 13.9577 743.42 13.3343C743.205 13.4483 742.95 13.4857 742.691 13.4153C742.177 13.2746 741.821 12.7047 741.987 12.1856C742.027 12.0627 742.077 11.9443 742.134 11.8294C741.364 11.9514 740.544 11.5471 740.243 10.678C740.191 10.5275 740.187 10.3797 740.217 10.2398C739.675 9.77501 739.296 9.14632 739.155 8.43304C739.071 8.01272 739.263 7.60933 739.565 7.37068C739.363 6.61465 739.322 5.79896 740.036 5.31809C740.827 4.78468 741.984 5.04649 742.813 5.35193C743.149 5.4766 743.363 5.72148 743.46 5.99754C743.921 5.93075 744.441 6.18721 744.635 6.69924V6.69924Z" fill="#593524"/>
<path d="M757.58 5.60926C757.581 5.90936 757.431 6.20233 757.065 6.38221C756.763 6.53003 756.85 7.00912 756.845 7.29853C756.842 7.47663 756.83 7.65027 756.806 7.82214C756.989 8.67612 757.105 9.54168 757.153 10.4144C757.189 11.0457 756.723 11.3654 756.231 11.3779C756.119 12.5008 754.275 12.4429 754.22 11.2149C754.19 10.5604 753.986 9.99672 753.632 9.4464C753.487 9.22021 753.461 8.96909 753.518 8.73667C753.136 8.92279 752.692 8.90587 752.354 8.57015C751.996 8.21484 751.926 7.49978 752.354 7.15605C752.433 7.09282 752.516 7.02782 752.6 6.96103C752.53 6.34481 752.565 5.75975 752.779 5.156C752.958 4.65287 753.383 4.41511 753.808 4.44717C753.819 4.4347 753.829 4.42134 753.84 4.40977C754.735 3.37234 756.094 3.49078 757.3 3.81135C758.229 4.05891 758.178 5.17915 757.579 5.60926H757.58Z" fill="#593524"/>
</g>
<path d="M742.087 60.0228C745.583 60.0228 748.585 54.6451 747.195 53.3566C745.129 51.4402 744.327 53.4902 742.356 53.4902C740.384 53.4902 738.969 51.5907 737.203 53.0013C735.365 54.4679 738.771 60.0228 742.087 60.0228Z" fill="#593524"/>
<path d="M733.394 57.0459C733.394 56.4074 732.872 55.8901 732.228 55.8901C731.584 55.8901 731.063 56.4074 731.063 57.0459C731.063 57.6844 731.584 58.2018 732.228 58.2018C732.872 58.2018 733.394 57.6844 733.394 57.0459Z" fill="#593524"/>
<path d="M739.506 64.1396C739.506 63.5011 738.984 62.9837 738.34 62.9837C737.696 62.9837 737.175 63.5011 737.175 64.1396C737.175 64.7781 737.696 65.2955 738.34 65.2955C738.984 65.2955 739.506 64.7781 739.506 64.1396Z" fill="#593524"/>
<path d="M749.199 63.9223C749.199 63.2838 748.677 62.7665 748.033 62.7665C747.389 62.7665 746.868 63.2838 746.868 63.9223C746.868 64.5608 747.389 65.0782 748.033 65.0782C748.677 65.0782 749.199 64.5608 749.199 63.9223Z" fill="#593524"/>
<path d="M754.397 56.2516C754.397 55.6131 753.876 55.0957 753.232 55.0957C752.588 55.0957 752.066 55.6131 752.066 56.2516C752.066 56.8901 752.588 57.4075 753.232 57.4075C753.876 57.4075 754.397 56.8901 754.397 56.2516Z" fill="#593524"/>
<path d="M741.869 46.6102C740.826 46.6102 739.788 46.7625 738.868 47.0661C738.657 47.1356 738.543 47.3627 738.613 47.5719C738.683 47.7812 738.911 47.8952 739.123 47.8248C740.78 47.2772 742.95 47.2772 744.652 47.8257C744.863 47.8934 745.091 47.7794 745.16 47.5693C745.229 47.3591 745.112 47.1338 744.901 47.0652C743.96 46.7616 742.911 46.6102 741.869 46.6102V46.6102Z" fill="#CCC5A9"/>
<path d="M967.135 63.7431C967.9 64.2166 968.511 65.4722 969 66.6342C967.813 66.1901 966.498 65.7139 965.966 64.8774C966.106 64.5564 967.135 63.7431 967.135 63.7431V63.7431Z" fill="#D9CFCA"/>
<path d="M958.102 70.5008C958.579 71.2543 958.577 72.6971 958.491 73.901C957.752 73.2803 956.651 72.0997 956.545 71.1187C956.814 70.8905 958.102 70.5008 958.102 70.5008Z" fill="#D9CFCA"/>
<path d="M946.637 70.886C946.651 71.7733 945.897 72.9816 945.192 74C944.917 72.8015 944.607 71.4425 945.029 70.5463C945.38 70.4856 946.637 70.8851 946.637 70.8851V70.886Z" fill="#D9CFCA"/>
<path d="M937.964 65.7576C937.622 66.5423 936.433 67.1897 935.095 67.7007C935.519 66.4264 935.931 65.2118 936.762 64.6554C937.095 64.7802 937.963 65.7567 937.963 65.7567L937.964 65.7576Z" fill="#D9CFCA"/>
<path d="M965.462 0.0686798C966.165 1.13699 965.451 1.53739 965.915 2.17142C965.155 2.97222 965.649 4.10741 965.811 4.27417C964.975 4.70399 965.332 5.74288 965.431 5.97652C964.786 6.55437 964.951 7.24458 965.054 7.61198C964.637 8.03556 964.509 8.74718 964.782 9.14758C964.462 9.77715 964.646 10.3497 964.85 10.75C963.864 11.8852 964.609 12.7859 964.609 12.7859C964.11 13.3575 964.339 14.4553 964.339 14.4553C963.912 15.4184 964.544 16.1576 964.544 16.1576C963.966 17.0253 963.906 17.6263 964.191 17.6932C963.627 18.4369 963.711 18.9613 964.025 19.4285C963.502 19.7906 963.83 21.064 964.102 21.3315C963.524 21.6989 963.592 22.7334 963.694 23.1008C963.194 23.2078 963.319 24.4357 963.626 24.7362C963.388 25.1366 962.884 25.9044 963.357 26.2379C962.674 27.1725 962.674 28.0072 963.354 27.8065C962.684 29.17 963.048 29.6088 963.388 29.3751C962.525 31.1506 962.776 31.7454 963.354 31.979C961.858 33.2471 963.592 34.0149 963.762 34.0149C962.216 35.2865 962.146 36.518 962.75 36.3852C962.64 37.3527 961.517 39.3556 962.946 39.2227C962.232 39.9236 961.824 40.925 963.048 41.3254C961.92 42.8512 962.266 43.2614 962.708 44.1291C962.062 45.1974 961.313 46.8329 962.47 47.4C961.748 48.5379 962.98 49.5028 963.184 49.4698C963.083 51.0384 963.899 51.1382 964.375 51.1382C963.389 52.0398 963.967 53.7422 964.851 53.6084C964.33 54.485 965.429 54.9772 966.109 55.0432C965.702 55.7111 965.532 57.0791 966.96 57.0791C966.227 58.0217 966.955 59.683 968.114 59.6491C967.307 60.5257 968.185 61.9855 968.763 62.0524C968.15 62.9539 968.491 63.7547 968.763 64.189C967.3 64.4895 966.858 65.0237 966.586 66.3916C965.871 65.8913 965.259 66.2249 965.157 66.6921C964.443 66.0581 963.627 66.4915 963.389 66.8589C963.083 65.8575 961.926 65.6238 961.621 66.191C960.94 65.523 960.022 65.9243 960.94 66.8589C960.121 67.7266 960.498 68.127 960.974 68.6611C960.158 68.6941 959.607 69.4976 959.947 70.499C958.735 70.2422 958.799 71.3426 958.799 71.5094C957.915 71.1339 957.575 71.6039 957.404 72.3021C956.418 71.4041 956.144 71.8322 955.633 72.2656C955.26 71.0867 954.34 71.4648 954.069 71.7653C953.967 70.7309 953.048 70.3296 952.572 70.5641C952.606 69.7633 952.289 68.7949 951.767 69.0954C951.552 68.1608 950.634 69.0285 950.974 69.7633C949.851 69.6296 949.761 70.1637 949.761 70.6533C948.929 70.4 948.649 70.9092 948.649 71.2374C947.679 71.0011 947.289 71.4987 947.266 71.5655C946.54 71.3203 946.342 71.8357 946.342 71.8357C945.662 71.3016 944.999 71.6324 944.999 71.6324C944.637 70.8539 944.001 70.8985 943.91 70.9645C943.773 70.12 943.072 70.0522 943.072 70.0522C943.075 69.2657 942.459 68.8725 942.459 68.8725C942.617 68.0137 942.188 67.8487 942.188 67.8487C942.52 67.2522 942.369 66.603 942.074 66.7135C942.538 66.1384 942.437 65.4232 942.233 65.7567C942.186 65.153 941.552 65.779 941.552 66.2686C940.776 65.8878 940.464 66.5798 940.464 66.6689C939.829 66.0679 939.307 66.9579 939.307 66.9579C938.644 66.2775 937.924 67.0693 937.924 66.9802C937.607 66.2017 937.255 66.1571 936.666 66.3568C936.881 65.7451 936.28 65.4669 935.94 65.556C936.031 64.8881 935.895 64.6884 935.532 64.6438C935.748 64.222 935.522 63.7761 935.193 63.6753C935.658 63.4524 935.272 62.6855 935 62.6962C935.193 62.1513 935.476 61.7946 935.079 61.5387C935.578 61.4495 935.592 60.8155 935.398 60.6042C935.871 60.2537 935.305 60.2145 935.793 59.625C936.281 59.0356 936.451 58.991 936.326 58.7351C936.575 58.357 936.961 58.0627 936.802 57.8041C937.176 57.3109 937.392 57.0104 937.255 56.5993C937.641 56.0652 938.162 56.2319 937.901 55.6755C938.355 55.1083 938.775 55.2412 938.434 54.6633C939.035 54.5635 939.25 54.1292 939.171 53.9731C939.772 53.8064 940.225 53.4559 939.92 53.0056C940.617 52.7719 940.786 52.3047 940.447 51.9043C941.297 51.5877 941.313 51.2033 941.093 50.819C942.096 50.6353 942.215 50.0681 941.977 49.7846C942.56 49.2468 943.116 49.2843 942.453 48.8161C942.521 48.3489 943.015 48.282 942.487 47.7478C942.945 46.6635 942.758 46.0954 942.35 45.8957C942.793 45.4953 942.185 45.6335 942.506 44.9299C942.826 44.2263 942.657 43.6092 942.249 43.4255C942.588 42.7915 942.35 42.2234 942.096 42.1904C942.861 41.6563 942.181 40.9723 941.926 40.9224C942.538 40.3882 942.232 39.1201 941.96 39.0702C942.691 38.5361 942.319 37.9475 942.063 37.8334C942.708 36.9175 942.062 36.0169 941.62 35.8162C942.164 35.4328 942.436 35.1822 941.943 34.8148C942.096 34.1638 941.807 33.4299 941.467 33.3291C942.13 32.778 941.875 32.2448 941.433 32.1779C941.943 31.477 941.671 31.0926 941.382 30.9927C941.841 30.7591 941.965 30.0386 941.521 29.9396C941.773 29.3733 941.569 28.7892 941.11 28.7562C941.586 28.3558 941.297 27.5381 940.991 27.5212C941.327 27.2046 941.433 26.1523 940.957 26.0525C941.314 25.2677 941.416 24.2502 940.736 24.0665C941.05 23.3166 941.519 22.6148 940.77 22.2304C940.991 21.4127 941.383 20.7617 940.736 20.4612C940.957 19.7933 940.736 18.5252 940.022 18.3914C940.924 17.5907 941.043 16.1888 940.227 15.9382C940.839 15.438 940.703 14.4196 940.057 14.3028C940.839 13.6188 940.584 11.6989 939.547 11.6159C940.398 10.7313 940.159 9.49625 939.598 9.36248C939.836 8.64463 939.972 7.87683 939.343 7.62714C940.38 7.32662 939.836 5.64122 939.19 5.50745C939.819 5.14005 938.901 4.67278 939.19 3.68829C939.479 2.7038 939.751 2.25257 939.054 2.10276C939.649 1.80224 939.071 0.250597 938.816 1.52588e-05C940.295 1.52588e-05 965.464 0.0668945 965.464 0.0668945L965.462 0.0686798Z" fill="white"/>
<path d="M962.517 41.9621C962.524 42.0165 962.533 42.0638 962.544 42.1048C962.662 41.8792 962.826 41.6241 963.047 41.3245C961.822 40.9241 962.231 39.9227 962.945 39.2218C961.517 39.3555 962.639 37.3527 962.749 36.3842C962.145 36.518 962.215 35.2865 963.761 34.014C963.592 34.014 961.857 33.2462 963.353 31.9781C962.776 31.7445 962.525 31.1506 963.387 29.3742C963.047 29.6078 962.683 29.1691 963.353 27.8056C962.673 28.0062 962.673 27.1716 963.356 26.237C962.883 25.9035 963.387 25.1357 963.625 24.7353C963.319 24.4348 963.193 23.2069 963.693 23.0998C963.592 22.7324 963.523 21.698 964.101 21.3306C963.83 21.064 963.502 19.7906 964.024 19.4276C963.709 18.9603 963.626 18.436 964.19 17.6923C963.905 17.6254 963.965 17.0244 964.543 16.1567C964.543 16.1567 963.911 15.4174 964.338 14.4543C964.338 14.4543 964.109 13.3566 964.608 12.785C964.608 12.785 963.863 11.8834 964.849 10.7491C964.645 10.3487 964.462 9.77622 964.781 9.14665C964.509 8.74625 964.636 8.03464 965.053 7.61106C964.951 7.24366 964.786 6.55344 965.43 5.97559C965.331 5.74195 964.975 4.70307 965.81 4.27324C965.648 4.10649 965.154 2.97129 965.914 2.1705C965.449 1.53646 966.164 1.13607 965.461 0.0677528C965.461 0.0677528 940.291 0.000873566 938.812 0.000873566C939.067 0.251455 939.645 1.8031 939.05 2.10361C939.747 2.25343 939.475 2.70465 939.186 3.68914C938.897 4.67363 939.815 5.14091 939.186 5.50831C939.832 5.64207 940.377 7.32748 939.339 7.628C939.968 7.87858 939.832 8.64638 939.594 9.36335C940.156 9.49711 940.394 10.7322 939.543 11.6168C940.581 11.7006 940.836 13.6197 940.053 14.3036C940.699 14.4205 940.836 15.4388 940.223 15.9391C941.039 16.1897 940.92 17.5915 940.019 18.3923C940.733 18.5261 940.954 19.7941 940.733 20.4621C941.379 20.7626 940.988 21.4135 940.766 22.2313C941.515 22.6147 941.045 23.3165 940.733 24.0674C941.413 24.2511 941.311 25.2695 940.954 26.0533C941.43 26.1532 941.324 27.2055 940.987 27.522C941.294 27.539 941.582 28.3567 941.106 28.7571C941.565 28.7901 941.77 29.3742 941.517 29.9405C941.962 30.0394 941.838 30.76 941.378 30.9936C941.667 31.0935 941.94 31.4778 941.429 32.1787C941.871 32.2456 942.126 32.7798 941.463 33.33C941.803 33.4299 942.092 34.1647 941.94 34.8156C942.433 35.183 942.16 35.4327 941.616 35.8171C942.059 36.0177 942.705 36.9184 942.06 37.8342C942.316 37.9492 942.687 38.5378 941.956 39.0711C942.228 39.121 942.534 40.39 941.922 40.9232C942.053 40.9491 942.297 41.1426 942.398 41.3976C942.536 41.0383 942.946 40.9714 943.945 41.601C943.945 41.601 945.049 40.4827 945.451 41.6117C945.451 41.6117 946.153 40.3846 947.358 41.0695C948.261 40.3757 949.666 41.8622 950.369 41.6652C950.771 40.9758 951.573 41.6652 952.878 41.7695C953.38 40.4952 953.982 40.975 955.415 41.8373C955.744 41.222 956.19 40.7779 957.796 41.8373C958.9 42.2073 959.904 40.975 960.706 41.8373C961.51 42.6996 962.312 40.4827 962.513 41.9603L962.517 41.9621Z" fill="#B5BDCC"/>
<path d="M952.354 46.3611C953.222 46.3611 954.085 46.486 954.85 46.7365C955.064 46.8061 955.18 47.0335 955.108 47.2431C955.036 47.4526 954.806 47.5668 954.592 47.4963C953.241 47.0549 951.473 47.0549 950.085 47.4972C949.871 47.565 949.641 47.4508 949.571 47.2404C949.501 47.0299 949.618 46.8043 949.832 46.7357C950.615 46.486 951.486 46.3611 952.353 46.3611H952.354Z" fill="#B7C4DE"/>
<path d="M951.961 58.1545C947.288 58.1545 946.019 53.4149 947.72 52.1468C949.421 50.8788 949.965 53.0145 951.87 53.0145C953.774 53.0145 954.387 50.8779 956.087 52.3466C957.788 53.8153 956.223 58.1545 951.961 58.1545Z" fill="#593524"/>
<path d="M961.777 60.1707C963.102 59.1256 960.28 57.0996 959.328 57.7675C958.376 58.4354 960.507 61.1731 961.777 60.1707Z" fill="#593524"/>
<path d="M955.797 64.576C956.826 64.2389 955.98 61.0964 954.866 61.2462C952.94 61.5057 954.216 65.0932 955.797 64.576Z" fill="#593524"/>
<path d="M947.288 64.51C948.722 64.9666 949.76 61.7295 948.49 61.2846C947.221 60.8396 945.611 63.9759 947.288 64.51Z" fill="#593524"/>
<path d="M941.37 60.2804C942.429 61.1008 944.545 58.5487 943.502 57.7479C942.458 56.9471 940.1 59.2977 941.37 60.2804Z" fill="#593524"/>
<path d="M1065.28 49.6383C1067.08 54.1228 1072.37 61.0929 1070.67 63.7573C1068.35 67.3807 1064.41 64.4672 1063.77 64.7341C1063.13 65.0001 1064.52 69.626 1061.08 70.7612C1057.34 71.9933 1055.89 68.0639 1054.98 67.9304C1054.08 67.797 1052.54 71.9933 1048.61 70.6384C1045.96 69.7283 1045.8 67.0978 1046.2 64.9333C1046.27 64.2341 1045.56 65.4173 1043.41 65.9546C1040.58 66.6645 1037.69 63.9067 1039.64 59.6446C1041.59 55.3825 1045.94 50.6142 1046.17 48.7051C1046.39 46.796 1043.74 11.854 1042.94 0L1068.75 0C1068.75 0 1063.83 46.0043 1065.28 49.6374L1065.28 49.6383Z" fill="#F4E9E3"/>
<path d="M1055.95 57.6128C1051.32 57.6128 1050.07 52.8845 1051.75 51.6186C1053.43 50.3536 1053.97 52.4842 1055.86 52.4842C1057.74 52.4842 1058.35 50.3527 1060.03 51.8179C1061.71 53.2831 1060.16 57.6119 1055.95 57.6119V57.6128Z" fill="#EBA3A3"/>
<path d="M1065.46 59.6989C1066.76 58.6438 1064.12 56.6039 1063.23 57.3459C1062.34 58.0958 1064.27 60.6597 1065.46 59.6989Z" fill="#EBA3A3"/>
<path d="M1059.36 63.6567C1060.33 63.2475 1059.26 60.3047 1058.19 60.6436C1057.26 60.9354 1057.83 64.3061 1059.36 63.6567Z" fill="#EBA3A3"/>
<path d="M1051.42 63.4566C1052.84 63.9121 1054.02 60.544 1052.76 60.1001C1051.5 59.6562 1049.76 62.9237 1051.42 63.4566Z" fill="#EBA3A3"/>
<path d="M1045.68 59.7283C1046.73 60.5467 1048.82 58.0007 1047.79 57.2018C1046.76 56.4029 1044.43 58.7479 1045.68 59.7283Z" fill="#EBA3A3"/>
<path d="M1044.52 22.2366C1046.63 12.9064 1050.15 15.8368 1050.27 11.7081C1050.4 7.57946 1055.77 9.44408 1056.25 6.11427C1056.51 4.30303 1058.16 2.13595 1057.86 0.000892639L1042.93 0.000892639C1043.26 4.83858 1043.9 13.5229 1044.52 22.2366H1044.52Z" fill="#593524"/>
<path d="M1058.51 21.2385C1059.28 24.8343 1056.25 26.5664 1054.37 30.5118C1052.49 34.4572 1059.75 34.1583 1060.9 37.0886C1061.82 39.4336 1063.12 37.9427 1065.26 39.4354C1065.6 33.4973 1066.24 25.8769 1066.88 18.9202C1063.43 17.1579 1057.86 18.1978 1058.51 21.2385Z" fill="#593524"/>
<path d="M1067.81 9.13806C1067.89 8.35165 1067.97 7.59993 1068.04 6.89091C1068.29 4.26657 1068.53 1.90911 1068.72 0.000902176C1066.62 2.87256 1066.08 6.19346 1067.81 9.13806Z" fill="#593524"/>
<path d="M629.606 49.6668C627.846 54.1539 622.656 61.1281 624.327 63.7941C626.601 67.4196 630.463 64.5044 631.09 64.7714C631.716 65.0376 630.354 69.6663 633.729 70.8021C637.391 72.0349 638.48 67.0902 639.651 67.457C640.486 67.7187 642.438 71.6548 645.472 70.6178C648.014 69.9556 648.073 67.2781 647.981 65.0322C647.751 63.9525 648.854 64.8649 651.017 65.0322C653.887 65.2548 656.064 62.6592 654.45 59.0595C652.537 54.7948 648.563 50.6441 648.344 48.7339C648.123 46.8237 650.719 11.861 651.51 0L626.207 0C626.207 0 631.031 46.0315 629.605 49.6668H629.606Z" fill="#C26E40"/>
<path d="M628.674 26.2233C630.174 26.664 631.51 27.0663 631.79 28.3071C632.424 31.1057 636.501 29.7064 637.491 33.1014C638.481 36.4964 644.221 35.5039 647.073 39.1018C647.768 39.9786 648.294 40.6168 648.693 41.0245C648.782 39.5896 648.883 38.006 648.994 36.3157C645.844 29.8266 640.374 26.3115 639.501 22.2498C638.542 17.7911 632.939 19.9114 631.79 14.146C630.836 9.34997 629.775 4.54503 626.369 1.56843C626.767 5.4592 627.824 15.9841 628.673 26.2233H628.674Z" fill="#593524"/>
<path d="M639.573 59.3701C644.106 59.3701 645.337 54.6391 643.687 53.3724C642.037 52.1057 641.51 54.2385 639.662 54.2385C637.814 54.2385 637.221 52.1057 635.572 53.5718C633.922 55.0378 635.439 59.3692 639.573 59.3692V59.3701Z" fill="#F4E9E3"/>
<path d="M629.19 60.773C627.963 59.6612 630.641 57.7073 631.565 58.3741C632.489 59.0408 630.351 61.8251 629.19 60.773Z" fill="#F4E9E3"/>
<path d="M635.622 64.7127C634.307 64.2374 635.419 60.7854 636.793 61.2875C638.024 61.7379 637.128 65.2575 635.622 64.7127Z" fill="#F4E9E3"/>
<path d="M643.662 64.9931C642.271 65.4488 641.375 61.7058 642.606 61.2617C643.837 60.8175 645.289 64.4599 643.662 64.9931Z" fill="#F4E9E3"/>
<path d="M649.973 60.8246C648.873 61.7014 646.679 58.9749 647.761 58.1195C648.843 57.2641 651.291 59.7751 649.973 60.8246Z" fill="#F4E9E3"/>
<path d="M649.955 22.2489C647.89 12.9132 644.443 15.8453 644.318 11.7142C644.194 7.58307 638.93 9.44878 638.461 6.11702C638.205 4.3047 636.586 2.13634 636.878 1.90735e-05L651.511 1.90735e-05C651.188 4.84056 650.565 13.53 649.955 22.2489V22.2489Z" fill="#593524"/>
<path d="M1167.66 42.5973C1168.01 45.7268 1173.92 58.3205 1171.36 62.4621C1169.73 64.9356 1167.31 64.0179 1166.2 63.8497C1165.41 63.7304 1166.05 66.657 1163.24 67.7883C1161.82 68.3615 1160.12 68.2102 1158.39 66.5226C1157.28 65.6014 1156.5 69.1474 1153.04 68.9952C1149.95 68.859 1149.41 64.9658 1148.78 64.8412C1147.82 64.6508 1145.99 66.1247 1144.36 65.4055C1140.95 63.8924 1139.4 59.1528 1143.28 50.9783C1148.18 40.6774 1146.98 41.0575 1146.54 25.3298C1146.04 12.9666 1145.34 0 1145.34 0L1170.72 0C1170.72 0 1168.06 20.8091 1167.63 31.7206C1167.55 33.7749 1167.17 38.2457 1167.66 42.5955V42.5973Z" fill="#D3D4D6"/>
<path d="M1165.68 34.2243C1166.27 34.6525 1166.89 34.9702 1167.47 35.1945C1167.48 34.6925 1167.51 34.2181 1167.53 33.7775C1165.14 32.6418 1164.35 33.1082 1162.27 32.9061C1160.16 32.6996 1157.15 33.3076 1155.69 33.8398C1155.76 34.5999 1157.82 33.5363 1160.41 34.1433C1163.01 34.7513 1163.91 32.9319 1165.68 34.2243H1165.68Z" fill="#F4E9E3"/>
<path d="M1157.44 56.0535C1160.22 56.0535 1160.01 54.2039 1162.29 52.5368C1164.44 50.9578 1164.07 48.9596 1162.57 48.171C1160.44 47.0495 1158.63 48.8074 1157.38 48.8074C1156.14 48.8074 1153.92 46.6249 1151.85 48.4131C1149.79 50.2013 1151.84 52.0606 1153.03 53.021C1154.42 54.1425 1154.77 56.0526 1157.44 56.0526V56.0535Z" fill="white"/>
<path d="M1167.84 59.9636C1169.31 59.3717 1167.77 54.6507 1165.77 55.6556C1164.12 56.4825 1165.89 60.7522 1167.84 59.9636Z" fill="white"/>
<path d="M1161.51 63.3575C1163.89 63.0077 1162.25 58.2386 1160.41 58.4353C1158.56 58.632 1158.82 63.7527 1161.51 63.3575Z" fill="white"/>
<path d="M1153.38 63.7019C1155.65 63.96 1156.13 59.2845 1154.15 58.8403C1152.18 58.3962 1151.04 63.4349 1153.38 63.7019Z" fill="white"/>
<path d="M1146.46 60.6427C1148.75 61.4376 1150.06 57.1661 1148.62 56.2849C1146.21 55.1607 1144.97 60.1229 1146.46 60.6427Z" fill="white"/>
<path d="M1167.76 29.2123C1167.84 27.8496 1167.95 26.3908 1168.07 24.8794C1167.04 24.8207 1166.24 24.9658 1166.1 25.2355C1165.74 25.9253 1160.28 24.0846 1157.35 23.855C1154.42 23.6253 1155.61 25.2355 1153.16 25.8105C1150.72 26.3855 1148.97 27.766 1152.1 27.191C1154.56 26.7388 1162.18 26.9275 1167.76 29.2123H1167.76Z" fill="#F4E9E3"/>
<path d="M1167.75 14.9951C1165.9 14.1896 1162.96 13.1545 1162.69 14.1531C1162.41 15.1518 1157.48 13.0396 1157.58 14.3053C1157.69 15.571 1153.52 13.6155 1150.7 14.3053C1147.88 14.9951 1150.95 15.3405 1153.81 16.146C1156.66 16.9515 1158.3 15.8007 1160.72 16.9515C1163.13 18.1024 1164.29 15.8176 1167.05 18.1024C1167.65 18.6053 1168.15 18.9222 1168.58 19.1198C1168.71 17.7695 1168.85 16.4201 1168.98 15.0975C1168.68 15.2141 1168.31 15.2381 1167.75 14.9969V14.9951Z" fill="#F4E9E3"/>
<path d="M1167.61 5.25503C1165.66 3.95106 1165.12 5.5621 1163.1 4.79486C1161.08 4.02761 1160.53 4.33469 1158.28 4.41123C1156.02 4.48778 1153.92 4.71831 1155.4 5.25503C1156.88 5.79174 1158.59 5.17848 1160.84 6.32846C1163.1 7.47933 1164.42 6.63554 1166.75 7.86206C1168.11 8.57591 1168.83 8.53941 1169.68 8.71387C1169.79 7.70274 1169.91 6.7468 1170.01 5.86562C1169.28 5.86829 1168.55 5.8852 1167.61 5.25414V5.25503Z" fill="#F4E9E3"/>
<path d="M1163.17 9.81845C1162.09 8.89811 1160.06 9.35828 1158.74 9.35828C1157.42 9.35828 1157.96 8.20741 1155.48 8.89811C1152.99 9.58881 1152.41 7.61373 1150.48 8.67737C1148.56 9.74191 1147.14 8.44684 1145.83 9.2043C1145.83 9.20786 1145.82 9.21231 1145.81 9.21587C1145.86 10.2804 1145.92 11.4081 1145.98 12.5839C1147.41 11.6271 1148.2 12.1086 1149.96 11.6529C1152.29 11.0459 1153.45 12.2599 1155.01 11.6529C1156.56 11.0459 1157.46 11.5497 1159.44 11.1224C1161.46 10.6863 1164.26 10.7388 1163.17 9.81845V9.81845Z" fill="#F4E9E3"/>
<path d="M1161.06 19.5977C1158.84 18.4469 1154.62 19.3672 1152.53 19.5977C1150.44 19.8274 1148.44 19.1376 1146.88 20.1727C1146.71 20.284 1146.53 20.4326 1146.34 20.6071C1146.39 21.7757 1146.44 22.9542 1146.49 24.1318C1146.62 24.0802 1146.74 24.0259 1146.88 23.9689C1150.82 22.2973 1153.83 21.2079 1153.13 20.9773C1152.43 20.7468 1158.75 21.5523 1157.4 20.4024C1156.04 19.2515 1163.27 20.7477 1161.06 19.5968L1161.06 19.5977Z" fill="#F4E9E3"/>
<path d="M1145.63 5.54519C1146.31 5.35204 1146.26 4.97287 1146.4 4.50736C1146.63 3.74011 1150.52 3.87363 1150.21 3.30843C1149.9 2.74323 1154.74 3.2034 1155.31 2.51359C1155.88 1.82289 1163.7 1.74634 1161.66 1.13308C1159.62 0.519815 1154.92 1.20963 1152.56 1.13308C1150.21 1.05653 1148.57 2.28306 1147.18 1.74634C1146.43 1.46241 1146.06 1.77927 1145.45 2.08457C1145.5 2.99334 1145.56 4.16646 1145.63 5.54608V5.54519Z" fill="#F4E9E3"/>
<path d="M1156.8 29.6066C1155.87 29.1465 1153.18 29.8941 1152.13 29.8363C1151.08 29.7784 1151.93 28.7299 1149.93 29.5132C1147.93 30.2964 1147.58 30.1816 1147.53 29.8941C1147.5 29.7838 1147.16 29.8879 1146.71 30.1336C1146.75 31.1394 1146.8 32.0588 1146.83 32.907C1147.38 32.6231 1147.54 32.4309 1147.47 32.1086C1147.35 31.563 1151.1 31.7348 1150.48 31.1598C1149.86 30.5848 1153.42 30.0668 1155.69 30.2973C1157.96 30.527 1157.73 30.0677 1156.8 29.6075L1156.8 29.6066Z" fill="#F4E9E3"/>
</g>
<defs>
<clipPath id="clip0_0_1026">
<rect width="1172" height="74" fill="white" transform="translate(2414 74) rotate(180)"/>
</clipPath>
<clipPath id="clip1_0_1026">
<rect width="1172" height="74" fill="white" transform="translate(1172 74) rotate(180)"/>
</clipPath>
</defs>
</svg>
