<svg width="113" height="47" viewBox="0 0 113 47" fill="none" xmlns="http://www.w3.org/2000/svg">
<path fill-rule="evenodd" clip-rule="evenodd" d="M16.5631 2.13416C16.0849 0.547821 14.4112 -0.350484 12.8249 0.12774C11.2385 0.605963 10.3402 2.27962 10.8185 3.86596C12.8546 10.62 11.769 13.897 7.46023 18.437L5.44956 20.5129C1.5916 24.5794 0.143951 27.9482 1.41781 32.8787C3.27171 40.0543 9.51366 44.2543 19.7153 45.7334L20.6123 45.8552L21.5293 45.9633C22.367 46.0548 23.229 46.1296 24.1152 46.1878C25.2455 46.71 26.4984 47.0001 27.871 47.0001H74.5979H75.232H83.6026H111.618C111.618 47.0001 112.617 42.5556 104.925 41.0695L105.377 36.1102L111.337 38.3333C111.596 38.4298 111.884 38.2983 111.98 38.0395C112.077 37.7808 111.945 37.4928 111.687 37.3963L105.471 35.078L105.771 31.7955L111.603 30.7076C111.875 30.657 112.054 30.3959 112.003 30.1244C111.953 29.853 111.692 29.6739 111.42 29.7246L105.865 30.7606L107.359 14.3669C107.463 13.2198 106.127 12.5212 105.245 13.262L98.2631 19.1255C97.1011 20.1014 95.6323 20.6364 94.1149 20.6364H84.2846C82.8186 20.6364 81.3962 20.1369 80.252 19.2203L71.0599 11.8565C70.2153 11.18 68.9633 11.7813 68.9633 12.8633V18.1497C64.3912 13.578 55.9813 7.19139 44.6777 7.19139C27.0733 7.19139 18.3447 18.5893 16.8558 27.0957C16.1637 31.0497 16.6361 35.6284 18.2039 39.3967C11.8136 38.06 8.24848 35.3313 7.22705 31.3778C6.59724 28.9401 7.18153 27.4585 9.56598 24.894L10.5548 23.8638L11.5296 22.8626C17.4219 16.759 19.3451 11.3625 16.5631 2.13416ZM95.4247 32.1283C93.6271 32.1283 92.1698 30.7014 92.1698 28.9413C92.1698 27.1812 93.6271 25.7543 95.4247 25.7543C97.2223 25.7543 98.6795 27.1812 98.6795 28.9413C98.6795 30.7014 97.2223 32.1283 95.4247 32.1283ZM78.174 28.9413C78.174 30.7014 79.6312 32.1283 81.4288 32.1283C83.2264 32.1283 84.6837 30.7014 84.6837 28.9413C84.6837 27.1812 83.2264 25.7543 81.4288 25.7543C79.6312 25.7543 78.174 27.1812 78.174 28.9413Z" fill="#2D2D2D"/>
</svg>
